<?xml version="1.0" encoding="UTF-8" standalone="no"?>
<!DOCTYPE svg PUBLIC "-//W3C//DTD SVG 1.1//EN" "http://www.w3.org/Graphics/SVG/1.1/DTD/svg11.dtd">
<svg width="1080.00" height="1920.00" viewBox="0.00 0.00 1080.00 1920.00" xmlns="http://www.w3.org/2000/svg" xmlns:xlink="http://www.w3.org/1999/xlink">
<g stroke-linecap="round" id="レイヤー_2">
<path d="M574.34,174.61 C560.23,179.81 508.44,198.93 503.28,201.02 C493.28,205.08 481.35,211.66 479.43,214.17 C478.52,215.41 478.69,217.48 479.78,218.38 C481.51,219.73 490.39,221.48 497.38,221.85 C509.56,222.46 561.13,219.82 582.36,218.97 C602.50,218.61 618.42,220.19 618.83,221.05 C619.37,222.32 619.32,223.74 618.66,225.31 C617.91,226.97 601.25,232.79 581.09,239.29 C572.16,242.17 558.46,246.59 553.68,248.13 C539.97,253.79 505.24,268.16 484.23,276.86 C471.54,282.33 456.43,290.14 451.90,293.56 C449.69,295.27 447.00,298.31 446.54,299.64 C446.11,301.00 447.01,303.17 448.09,303.96 C450.16,305.43 458.11,307.42 464.17,308.00 C469.49,308.49 487.10,308.72 496.81,308.53 C507.56,308.12 530.86,306.69 541.79,305.74 C552.10,304.66 572.62,301.77 579.23,300.52 C587.31,298.91 601.11,295.10 606.57,292.96 C613.39,290.24 622.02,285.34 625.30,282.37 C626.90,280.87 629.42,277.73 630.33,276.08 C631.21,274.42 632.29,270.92 632.48,269.13 C632.69,266.69 631.24,257.93 631.00,254.11 C630.79,250.51 631.18,243.76 631.78,240.61 C632.40,237.47 634.42,231.68 635.88,228.89 C637.32,226.17 640.93,221.19 643.10,218.94 C645.28,216.70 650.35,212.72 653.28,210.93 C656.47,209.03 663.03,206.45 667.04,205.55 C671.07,204.68 680.23,203.85 685.37,203.89 C693.90,203.99 711.61,206.45 720.45,208.33 C727.63,209.92 749.34,215.78 760.01,219.06 C770.65,222.56 788.38,229.03 794.02,231.76 C796.80,233.12 800.95,235.62 802.31,236.76 C803.58,237.84 804.94,240.02 804.71,241.13 C804.43,242.27 801.53,244.26 798.97,245.06 C793.73,246.63 778.07,247.95 760.80,248.44 C742.56,248.93 721.38,249.49 718.43,249.57 C718.43,249.57 721.99,247.79 721.99,247.79 C721.52,246.81 720.00,243.74 719.66,243.02 C718.34,240.38 716.52,238.29 714.72,237.94 C712.73,237.59 709.87,238.29 708.16,239.34 C701.16,243.70 689.14,252.74 681.50,259.39 C677.61,262.78 671.48,268.94 669.28,271.65 C667.13,274.34 664.44,279.25 664.11,281.01 C663.85,282.64 664.19,285.10 664.94,286.25 C665.70,287.33 668.23,289.10 669.97,289.75 C672.02,290.49 683.72,292.34 687.70,293.61 C689.59,294.22 692.61,295.57 694.26,296.51 C695.75,297.41 698.55,300.00 699.59,301.58 C700.66,303.29 701.53,307.52 701.32,309.79 C701.17,311.09 698.77,321.52 698.09,324.40 C698.09,324.40 697.25,326.43 697.25,326.43 C715.38,310.53 750.11,280.11 761.36,272.14 C768.80,266.88 784.57,257.23 792.90,252.84 C800.15,249.03 816.97,241.43 827.74,237.10 C836.93,233.70 855.98,227.50 865.84,224.69 C875.93,222.09 901.37,216.53 906.97,215.67 C911.64,214.96 919.36,214.33 922.39,214.41 C925.37,214.52 929.67,215.51 930.99,216.41 C932.27,217.32 933.16,219.95 932.78,221.65 C931.91,225.17 925.39,232.95 921.02,237.14 C914.20,243.42 894.83,258.82 883.05,267.56 C869.74,277.05 837.79,298.68 820.67,310.06 C782.39,334.36 715.91,375.95 687.71,393.23 C677.92,398.94 657.60,410.31 657.22,410.62 C655.60,411.97 654.62,412.48 654.29,412.16 C652.93,410.74 652.46,408.62 652.88,405.82 C653.00,405.08 656.11,403.19 658.71,400.93 C667.89,393.51 682.26,382.83 690.96,376.85 C700.02,370.97 719.17,359.53 729.27,353.97 C739.71,348.51 761.64,337.93 771.26,333.59 C787.36,326.68 821.58,313.45 839.69,307.14 C858.47,301.03 898.05,289.40 918.29,284.03 C940.19,278.71 969.02,273.06 978.20,272.19 C988.79,271.21 995.83,272.29 1000.22,273.63 C1001.32,274.00 1003.21,275.97 1004.22,277.88 C1004.47,278.39 1003.59,282.74 1002.44,284.79 C1000.06,288.92 989.59,299.80 981.50,306.55 C976.11,311.03 953.07,328.16 943.54,335.08 C934.78,341.16 918.79,351.64 911.56,356.04 C903.82,360.54 888.50,368.14 881.31,369.80 C878.77,370.36 874.37,370.73 872.50,370.54 C870.67,370.31 867.65,369.08 866.51,368.10 C865.35,367.05 861.85,359.87 859.63,358.24 C858.54,357.48 856.01,356.59 854.57,356.46 C851.51,356.25 845.09,358.24 842.11,359.69 C837.52,361.97 828.21,368.11 822.79,372.45 C813.71,379.74 785.81,406.88 772.90,419.36 C759.90,431.53 732.92,456.32 718.95,468.94 C694.73,489.92 667.03,513.90 663.53,516.90 C687.09,504.88 745.36,475.16 780.06,457.46 C790.48,452.15 811.40,441.61 821.91,436.38 C831.77,431.72 850.16,423.58 858.69,420.10 C866.78,417.00 882.70,411.57 888.41,410.06 C894.94,408.34 906.26,406.44 911.05,406.26 C915.82,406.11 923.56,407.32 926.63,408.71 C928.70,409.70 932.43,412.72 933.54,414.45 C934.70,416.32 935.99,419.64 936.38,421.75 C937.13,425.99 936.04,436.75 934.20,443.27 C932.33,449.81 926.01,465.19 921.55,474.01 C914.58,487.53 859.56,579.21 842.94,607.34 C841.43,609.98 837.42,616.96 837.16,617.48 C835.20,621.35 834.92,624.79 836.09,627.16 C836.35,627.62 828.34,596.14 827.55,594.14 C826.08,590.50 820.74,583.54 817.02,580.41 C813.25,577.30 803.54,571.68 797.59,569.17 C788.84,565.52 772.48,561.55 765.94,560.19 C752.19,557.62 719.60,553.59 701.45,551.99 C681.94,550.68 637.62,548.81 619.16,549.32 C608.53,549.84 592.65,551.52 585.19,552.92 C577.75,554.33 564.95,558.14 559.58,560.54 C554.24,562.96 545.62,568.79 542.35,572.20 C540.61,574.04 537.71,578.00 536.43,580.40 C535.16,582.82 533.34,588.02 532.79,590.80 C531.72,596.38 532.47,608.96 534.29,615.98 C536.14,623.01 542.75,638.50 547.50,646.97 C552.29,655.47 564.87,674.06 571.58,682.64 C578.15,691.01 591.24,705.14 597.75,710.90 C604.26,716.62 617.23,725.45 623.68,728.55 C630.13,731.62 643.11,735.17 649.37,735.58 C653.37,735.83 661.02,735.38 664.89,734.69 C668.76,733.97 676.47,731.58 680.32,729.92 C684.17,728.24 691.84,723.93 695.67,721.30 C703.33,716.00 718.55,701.58 726.13,692.47 C730.47,687.22 747.92,663.78 754.20,655.79 C761.75,646.61 769.92,637.60 773.67,634.29 C775.53,632.66 778.70,630.43 780.01,629.82 C781.31,629.24 783.37,629.09 784.10,629.53 C784.81,629.99 785.92,631.82 786.20,633.23 C786.74,636.05 785.71,645.49 784.14,652.10 C782.74,657.89 776.97,676.33 773.50,686.33 C764.63,709.78 746.64,758.34 742.22,771.90 C736.87,789.37 733.51,807.57 734.30,808.62 C735.59,810.25 737.19,811.43 739.12,812.16 C739.75,812.38 742.54,809.99 743.29,809.43 C748.13,805.45 758.27,793.55 771.13,777.44 C783.10,762.46 798.07,743.71 801.08,739.94 C813.22,745.67 843.56,759.98 861.75,768.57 C875.25,774.94 891.00,783.80 897.23,788.60 C900.32,791.00 905.16,795.68 906.91,797.97 C908.63,800.26 910.73,804.73 911.11,806.91 C911.46,809.06 910.86,813.19 909.96,815.17 C909.04,817.12 906.00,820.93 903.89,822.79 C899.60,826.50 886.22,833.53 877.12,836.85 C867.78,840.22 791.65,860.72 782.76,863.11 C808.77,861.57 874.75,857.63 914.72,855.25 C934.98,854.34 972.59,853.05 988.00,853.00 C1001.97,853.21 1018.09,854.38 1022.65,854.91 C1024.40,855.18 1026.92,855.39 1028.06,856.29 C1030.35,858.17 1032.18,860.23 1033.56,862.49 C1033.88,863.02 1033.69,863.69 1033.01,864.50 C1032.44,865.13 1030.83,867.84 1029.61,869.07 C1028.45,870.21 941.26,933.78 938.93,935.35 C932.31,939.79 922.18,944.57 919.13,944.70 C917.03,944.73 914.51,944.16 913.46,943.22 C912.50,942.30 911.37,939.35 911.30,937.54 C911.27,936.56 911.79,929.89 911.71,928.53 C911.58,926.55 910.17,922.83 909.01,921.35 C906.71,918.56 901.59,916.63 897.74,916.04 C892.82,915.44 879.94,915.91 871.97,916.98 C865.05,917.92 845.36,921.91 836.50,924.00 C827.91,926.24 809.96,931.71 803.80,933.90 C794.64,937.24 775.60,946.46 767.18,951.77 C763.01,954.41 754.73,960.39 752.09,962.78 C749.32,965.33 746.48,969.65 746.42,971.40 C746.43,973.12 748.90,975.53 751.91,976.69 C755.14,977.89 764.20,979.19 770.54,979.37 C781.56,979.65 823.83,976.18 841.80,975.57 C850.93,975.46 868.40,975.86 876.74,976.38 C887.33,977.26 905.39,980.05 914.44,982.41 C923.46,984.79 940.63,991.67 945.85,995.13 C948.84,997.15 953.29,1001.67 954.74,1004.16 C956.14,1006.66 957.40,1012.13 957.26,1015.10 C957.06,1018.19 955.28,1024.02 954.12,1026.52 C952.14,1030.68 946.32,1039.13 942.23,1043.78 C938.11,1048.44 928.32,1057.78 921.28,1063.76 C914.62,1069.18 899.84,1080.35 892.18,1085.75 C884.43,1090.96 868.62,1100.84 860.57,1105.50 C852.42,1109.98 835.81,1118.38 827.36,1122.30 C821.02,1125.11 801.65,1132.77 792.92,1135.90 C784.11,1138.85 766.24,1144.22 757.18,1146.64 C739.37,1151.02 700.19,1157.98 689.06,1159.46 C674.54,1161.13 659.93,1161.29 659.28,1160.93 C658.39,1160.39 657.11,1157.86 657.09,1156.51 C657.15,1153.77 660.95,1147.35 665.62,1141.97 C671.16,1135.55 677.57,1128.13 678.43,1127.12 C678.43,1127.12 680.13,1127.12 680.13,1127.12 C683.32,1128.17 691.30,1130.76 696.09,1132.30 C700.23,1133.65 705.66,1134.42 710.36,1133.98 C715.00,1133.51 726.36,1130.74 733.09,1128.44 C743.32,1124.91 760.93,1116.60 767.81,1113.26 C782.94,1105.48 817.99,1086.05 836.55,1075.50 C856.93,1063.28 897.41,1038.36 907.38,1031.58 C919.60,1022.90 926.09,1016.50 926.77,1014.99 C927.09,1014.25 926.90,1013.16 926.35,1012.84 C925.20,1012.23 919.66,1012.61 915.24,1013.60 C907.53,1015.36 873.61,1026.96 853.08,1034.67 C830.52,1043.30 787.98,1059.11 769.94,1065.21 C750.62,1071.22 733.33,1075.71 727.46,1077.00 C723.74,1077.83 713.99,1077.80 710.46,1076.31 C708.81,1075.55 706.38,1073.36 705.60,1071.92 C704.38,1069.49 704.53,1059.68 703.60,1057.11 C702.98,1055.51 701.01,1052.82 699.65,1051.74 C698.26,1050.68 694.75,1049.09 692.61,1048.56 C689.66,1047.86 687.37,1047.78 685.36,1048.22 C673.38,1050.74 647.15,1056.85 631.38,1061.15 C613.34,1066.53 574.23,1078.70 553.16,1085.50 C532.68,1092.52 494.91,1105.81 479.73,1111.59 C464.05,1117.93 445.62,1126.42 440.15,1129.75 C439.11,1130.53 436.71,1131.26 436.52,1132.37 C436.07,1135.19 436.34,1137.96 437.33,1140.68 C437.52,1141.20 438.36,1141.41 439.84,1141.32 C440.04,1141.30 450.71,1142.45 455.89,1142.47 C461.63,1142.48 492.75,1141.32 503.93,1141.26 C515.72,1141.42 531.96,1142.57 538.68,1143.71 C542.63,1144.41 551.89,1146.90 555.54,1148.88 C557.58,1150.03 560.51,1152.62 561.40,1154.07 C562.23,1155.54 562.78,1158.88 562.45,1160.55 C562.18,1161.75 559.91,1167.34 559.69,1168.06 C559.18,1169.73 558.93,1173.34 559.19,1174.97 C559.50,1176.58 560.88,1179.60 561.96,1181.01 C564.55,1184.25 568.13,1186.25 572.71,1187.71 C583.06,1190.73 607.44,1195.88 627.10,1199.14 C645.35,1201.77 685.04,1206.46 704.62,1208.61 C721.31,1210.09 752.52,1212.54 765.58,1213.18 C782.57,1213.74 805.60,1207.54 811.48,1205.69 C814.09,1204.88 815.02,1204.27 813.40,1204.43 C811.55,1204.63 715.62,1234.87 672.04,1248.72 C660.63,1252.50 639.65,1259.66 630.08,1263.04 C621.88,1266.11 606.18,1272.51 602.78,1274.11 C597.81,1276.48 591.49,1280.40 590.14,1281.96 C589.60,1282.60 589.01,1284.12 589.68,1285.23 C590.22,1286.05 594.83,1287.34 598.38,1287.64 C604.56,1288.15 628.92,1286.99 649.18,1285.15 C691.28,1280.25 779.70,1268.41 819.15,1263.10 C833.66,1261.15 855.49,1258.21 862.80,1257.22 C848.51,1272.84 816.52,1307.77 798.83,1327.09 C777.75,1350.12 732.20,1399.87 707.72,1426.60 C679.86,1457.04 622.64,1519.54 593.29,1551.59 C567.12,1580.18 518.17,1633.64 495.39,1658.52 C476.01,1679.69 440.63,1718.33 424.64,1735.80 C421.17,1739.58 414.45,1746.93 411.19,1750.48 C411.19,1750.48 410.99,1746.14 410.99,1746.14 C410.99,1746.14 408.45,1725.69 408.45,1725.69 C408.45,1725.69 412.50,1700.17 412.50,1700.17 C412.50,1700.17 412.58,1685.83 412.58,1685.83 C421.82,1660.58 444.96,1597.35 458.86,1559.37 C468.82,1532.15 479.62,1502.63 480.46,1500.34 C453.34,1519.84 396.24,1560.90 387.43,1566.50 C378.79,1571.97 365.04,1578.93 359.93,1580.42 C357.39,1581.13 353.20,1581.59 351.54,1581.32 C349.90,1581.03 347.52,1579.49 346.72,1578.20 C345.45,1576.04 345.46,1568.69 346.74,1563.60 C348.06,1558.47 352.91,1546.18 357.12,1537.31 C365.51,1520.60 389.05,1480.25 400.27,1461.12 C408.97,1446.29 423.22,1422.00 428.77,1412.54 C428.77,1412.54 435.71,1404.41 435.71,1404.41 C435.71,1404.41 434.87,1403.56 434.87,1403.56 C434.87,1403.56 449.44,1394.57 449.44,1394.57 C449.44,1394.57 443.51,1390.51 443.51,1390.51 C416.07,1389.50 354.49,1387.28 348.05,1387.53 C338.05,1387.95 320.63,1391.25 313.21,1394.14 C309.52,1395.60 302.77,1399.14 299.71,1401.21 C296.67,1403.29 291.23,1408.08 288.82,1410.77 C286.41,1413.51 282.37,1419.41 280.89,1422.27 C278.03,1427.86 274.39,1440.47 273.53,1447.71 C272.70,1454.97 273.01,1471.26 274.15,1480.28 C275.31,1489.33 279.33,1507.89 282.74,1519.99 C286.15,1532.06 290.12,1550.16 291.24,1558.73 C292.34,1567.26 292.51,1582.10 291.59,1588.40 C290.65,1594.67 286.76,1604.92 283.79,1609.00 C282.25,1611.06 278.52,1614.63 276.32,1616.12 C274.12,1617.58 269.12,1619.85 266.33,1620.65 C260.72,1622.22 247.12,1622.69 239.13,1621.59 C231.11,1620.45 212.41,1615.41 202.32,1611.68 C196.94,1609.67 187.87,1605.48 183.80,1603.12 C179.76,1600.75 172.80,1595.58 169.88,1592.78 C166.99,1589.97 162.33,1583.91 160.55,1580.66 C158.81,1577.40 156.44,1570.45 155.82,1566.75 C155.22,1563.05 155.15,1555.21 155.68,1551.07 C156.23,1546.93 158.40,1538.36 159.57,1535.89 C163.84,1526.75 175.53,1506.87 182.95,1496.14 C190.81,1485.18 209.90,1461.55 220.68,1449.11 C232.35,1436.22 258.39,1409.07 272.76,1394.82 C304.11,1365.19 362.27,1309.55 389.07,1283.54 C400.21,1272.23 421.00,1250.74 430.64,1240.56 C439.16,1231.22 459.67,1207.54 460.21,1206.61 C460.88,1205.39 462.00,1201.62 462.16,1200.06 C462.29,1198.49 461.91,1195.48 461.39,1194.04 C460.30,1191.16 455.38,1185.86 451.69,1183.57 C449.07,1181.97 427.11,1171.45 419.97,1168.23 C413.64,1165.49 412.30,1165.09 404.46,1163.70 C400.25,1163.03 392.90,1162.37 389.61,1162.37 C386.12,1162.41 380.40,1163.86 377.35,1165.52 C374.27,1167.23 368.55,1172.09 366.76,1174.37 C360.20,1182.74 346.03,1201.29 338.41,1211.48 C320.00,1237.34 279.87,1294.58 258.15,1325.96 C247.62,1340.68 226.95,1369.14 216.82,1382.86 C207.09,1395.58 187.13,1421.17 176.89,1434.03 C168.86,1443.73 153.14,1462.29 145.45,1471.15 C138.00,1479.39 123.60,1494.59 116.64,1501.56 C109.86,1508.11 95.56,1521.12 90.80,1524.66 C85.04,1528.93 75.30,1533.72 71.32,1534.24 C69.35,1534.48 65.84,1534.03 64.30,1533.34 C62.78,1532.63 60.18,1530.28 59.10,1528.65 C57.04,1525.44 54.97,1516.98 54.53,1512.39 C54.10,1507.64 54.18,1496.88 54.71,1489.37 C55.36,1482.34 57.38,1466.75 58.75,1458.19 C61.34,1443.68 71.64,1397.91 76.61,1376.96 C81.12,1359.17 89.65,1326.79 93.68,1312.21 C95.51,1306.12 99.00,1294.87 99.08,1294.55 C99.85,1291.69 106.94,1281.57 110.21,1278.45 C113.19,1275.66 120.08,1272.71 122.07,1271.90 C124.06,1271.09 126.77,1269.98 127.49,1269.68 C121.54,1303.44 109.69,1370.96 108.59,1382.14 C107.74,1391.06 108.02,1403.58 109.15,1407.17 C109.73,1408.93 111.42,1411.19 112.46,1411.59 C114.24,1412.23 118.14,1410.70 120.53,1408.61 C122.95,1406.49 128.73,1399.58 132.10,1394.80 C138.45,1385.62 159.75,1348.63 166.89,1336.89 C172.32,1328.34 183.89,1311.19 190.04,1302.59 C196.42,1293.98 209.90,1276.71 217.00,1268.06 C224.34,1259.39 238.76,1243.13 245.61,1235.56 C259.26,1221.10 288.51,1191.98 304.10,1177.31 C320.35,1162.58 354.65,1133.19 372.07,1118.59 C394.20,1100.33 422.86,1076.77 422.98,1076.70 C423.19,1076.59 365.73,1125.18 333.66,1152.28 C323.04,1161.21 302.67,1178.07 292.92,1186.01 C284.21,1192.81 267.56,1205.56 260.14,1210.94 C253.24,1215.75 240.08,1224.29 235.63,1226.76 C230.56,1229.56 222.44,1232.91 219.40,1233.46 C218.65,1233.59 216.64,1233.71 216.63,1233.71 C215.80,1233.93 212.85,1232.34 210.78,1230.55 C209.72,1229.61 210.49,1221.20 212.11,1216.17 C213.77,1211.11 219.27,1198.96 223.89,1190.17 C228.47,1181.86 239.58,1163.05 246.02,1152.70 C252.50,1142.61 265.25,1123.67 271.54,1114.81 C277.76,1106.36 290.02,1090.69 296.06,1083.47 C302.03,1076.66 314.57,1063.36 319.57,1058.67 C325.44,1053.20 341.50,1040.24 350.59,1035.09 C355.38,1032.41 364.76,1028.42 369.34,1027.12 C373.91,1025.85 382.85,1024.69 387.21,1024.80 C391.60,1024.94 398.66,1026.33 404.18,1028.07 C412.08,1030.58 425.62,1033.26 430.81,1033.33 C433.38,1033.35 437.81,1032.78 439.66,1032.19 C441.42,1031.61 444.56,1029.69 445.93,1028.11 C447.33,1026.46 449.02,1022.09 449.27,1019.48 C449.49,1016.85 448.75,1010.68 447.79,1007.14 C446.81,1003.60 443.30,994.64 441.50,991.15 C439.32,987.01 433.64,980.02 430.19,977.22 C426.70,974.46 418.48,970.32 413.74,968.93 C408.97,967.58 398.40,966.26 392.15,966.27 C387.49,966.29 373.31,967.98 366.26,969.35 C360.12,970.55 343.80,974.83 335.73,977.27 C327.37,980.00 309.79,986.38 300.56,990.03 C266.28,1004.44 219.51,1023.87 207.03,1028.89 C204.41,1029.91 193.54,1034.12 190.52,1034.44 C188.65,1034.61 185.15,1033.91 183.71,1033.11 C178.84,1030.26 172.01,1021.62 166.32,1012.99 C150.12,988.26 112.99,931.71 92.06,899.89 C82.96,886.53 63.58,858.65 53.31,844.13 C35.67,820.30 20.42,803.66 18.76,800.22 C17.81,798.17 17.77,794.93 18.69,793.74 C19.67,792.54 23.28,791.13 25.56,790.84 C29.87,790.34 42.22,791.22 50.58,792.63 C60.43,794.30 125.58,809.66 129.51,810.58 C134.12,819.59 145.52,841.82 145.61,841.99 C147.77,845.95 152.96,851.71 156.45,854.05 C159.99,856.35 168.62,859.60 173.72,860.56 C178.86,861.47 191.60,861.99 197.42,861.51 C202.43,861.07 232.77,853.69 250.64,848.40 C266.58,843.25 301.65,830.70 320.77,823.29 C341.21,814.87 380.77,797.98 398.15,789.84 C406.17,785.88 420.92,778.21 427.63,774.49 C441.89,766.21 459.54,753.65 465.53,747.53 C466.87,746.15 470.86,741.38 471.20,740.73 C473.45,736.44 475.73,730.90 475.66,729.89 C475.59,729.21 475.24,723.92 474.41,722.05 C473.55,720.18 470.79,716.63 468.88,714.95 C465.02,711.59 453.08,705.60 445.00,702.97 C438.65,700.93 417.70,696.06 408.16,694.23 C398.47,692.66 378.66,690.24 368.53,689.40 C358.26,688.81 337.29,688.36 326.58,688.51 C307.17,689.21 273.06,692.37 255.31,694.98 C246.36,696.43 228.17,699.83 219.01,701.64 C200.38,705.84 162.51,715.71 145.04,720.05 C136.88,721.90 121.75,724.97 114.78,726.19 C99.80,728.49 80.99,729.46 73.04,728.35 C71.95,728.18 69.23,727.58 67.94,726.95 C65.27,725.61 61.98,723.06 61.21,721.73 C59.72,718.97 59.06,713.72 59.73,710.20 C61.20,703.05 69.02,689.75 78.51,674.95 C83.69,667.11 96.34,649.46 96.41,649.37 C97.59,647.74 100.43,645.21 103.02,643.62 C105.19,642.34 108.81,641.87 110.09,642.64 C111.01,643.23 113.56,646.02 115.14,646.86 C116.61,647.62 120.51,648.50 122.22,648.49 C123.20,648.48 158.32,641.64 172.33,638.76 C189.29,634.99 226.08,626.61 245.90,621.99 C265.02,617.77 301.39,610.09 317.38,607.16 C324.75,605.95 338.87,603.79 345.61,602.84 C351.89,602.08 366.82,600.43 379.00,602.01 C384.40,602.74 393.47,605.38 397.08,607.26 C399.75,608.68 418.35,623.43 419.79,624.57 C419.79,624.57 378.93,616.60 378.93,616.60 C378.93,616.60 380.29,617.45 380.29,617.45 C380.29,617.45 379.27,617.96 379.27,617.96 C353.52,625.26 288.59,643.67 249.41,654.78 C219.76,663.19 185.12,673.01 180.15,674.42 C180.15,674.42 186.60,673.27 186.60,673.27 C186.60,673.27 229.65,665.13 229.65,665.13 C229.65,665.13 245.58,660.83 245.58,660.83 C245.58,660.83 265.85,656.18 265.85,656.18 C265.85,656.18 287.20,650.35 287.20,650.35 C287.20,650.35 310.88,644.77 310.88,644.77 C310.88,644.77 320.58,641.98 320.58,641.98 C320.58,641.98 332.22,639.68 332.22,639.68 C332.22,639.68 351.43,635.72 351.43,635.72 C364.28,638.05 389.82,645.24 408.40,650.53 C426.42,655.59 472.66,668.65 485.83,671.85 C494.56,673.83 507.58,675.67 511.87,675.53 C513.98,675.45 515.90,675.03 518.14,674.14 C518.76,673.87 519.38,672.33 519.46,670.96 C519.51,669.48 513.36,662.53 508.30,658.36 C503.86,654.70 488.15,643.48 480.26,637.57 C472.19,631.24 455.54,617.24 446.94,609.59 C433.51,597.20 405.77,569.43 394.64,557.70 C383.17,545.09 359.78,518.69 347.85,504.91 C339.22,494.67 329.45,484.14 323.25,478.53 C317.04,472.96 304.53,463.87 298.22,460.37 C291.91,456.89 279.18,452.01 272.77,450.60 C266.35,449.22 253.28,448.53 246.57,449.21 C239.72,449.93 225.95,453.60 219.03,456.55 C212.10,459.52 198.16,467.69 191.14,472.89 C184.13,478.12 169.99,490.82 162.92,498.25 C161.61,499.63 124.93,539.89 113.82,551.98 C105.08,561.27 87.06,580.14 86.33,580.08 C85.30,579.88 85.09,570.81 85.59,565.49 C85.65,564.87 90.38,530.95 90.73,528.39 C90.73,528.39 144.63,472.00 144.63,472.00 C144.63,472.00 235.71,404.23 235.71,404.23 C261.84,402.62 324.96,398.75 361.97,396.48 C408.52,393.59 491.91,387.98 528.73,385.25 C541.10,384.04 564.70,381.48 570.17,380.62 C574.02,379.94 579.25,378.38 579.32,378.38 C579.62,378.42 578.73,378.94 578.51,378.74 C577.75,378.08 577.68,376.88 577.04,376.09 C576.40,375.36 540.46,373.01 519.10,372.22 C470.21,371.07 389.27,369.19 357.24,368.47 C357.24,368.47 278.74,339.64 278.74,339.64 C248.60,342.77 185.40,349.34 152.34,352.78 C151.07,352.91 148.62,353.16 147.44,353.28 C176.51,341.68 236.09,317.90 266.61,305.72 C267.36,305.42 268.11,305.12 268.86,304.82 C296.45,289.75 353.00,258.85 381.97,243.02 C382.68,242.63 383.39,242.24 384.10,241.85 C356.70,248.96 287.78,266.76 246.26,277.47 C229.36,281.53 196.88,288.98 189.12,290.43 C184.93,291.13 178.77,291.96 178.37,291.48 C177.91,290.84 178.73,289.40 180.07,288.48 C185.45,284.92 220.94,268.48 223.08,267.29 C227.84,264.60 232.74,260.31 232.87,258.72 C232.88,257.93 231.74,256.60 230.64,256.12 C227.74,254.94 216.43,254.22 209.54,254.34 C202.14,254.58 184.39,255.71 174.04,256.61 C162.23,257.84 136.97,260.66 123.53,262.24 C111.28,263.49 89.39,265.00 83.01,264.93 C79.37,264.87 73.48,264.39 71.23,263.96 C69.01,263.53 65.95,262.28 65.10,261.47 C64.30,260.65 64.06,258.65 64.64,257.44 C65.42,255.86 70.23,251.53 73.92,249.06 C80.37,244.79 105.30,232.35 125.91,223.24 C149.33,213.44 240.30,177.20 270.99,164.98 C276.45,162.80 283.13,160.14 284.35,159.65 C273.31,165.75 246.41,180.55 230.55,189.24 C212.71,198.91 190.94,209.41 190.39,209.72 C188.99,210.50 187.28,212.20 186.99,213.09 C186.76,213.97 187.42,215.82 188.33,216.78 C189.63,218.11 191.15,218.95 192.88,219.39 C205.15,222.58 232.11,227.90 250.88,231.09 C267.15,233.68 282.62,235.61 291.95,235.95 C301.22,236.25 317.32,234.90 324.14,233.23 C327.54,232.39 333.73,230.21 336.52,228.88 C339.46,227.45 345.30,223.64 347.96,221.18 C350.75,218.56 355.24,212.44 356.92,208.95 C358.58,205.43 360.80,197.52 361.35,193.13 C361.88,188.72 361.83,178.94 361.25,173.73 C360.03,163.70 357.77,142.38 357.54,137.60 C357.21,130.61 357.92,117.72 359.34,116.54 C360.38,115.72 361.69,115.38 363.25,115.52 C364.98,115.74 370.34,121.37 376.74,128.89 C379.65,132.28 384.64,138.09 386.73,140.50 C390.28,137.51 398.95,130.20 404.07,125.89 C413.64,117.83 424.74,109.88 433.37,105.34 C441.86,100.92 459.16,94.28 467.46,91.81 C474.51,89.72 491.49,85.84 502.71,83.80 C520.02,81.21 547.03,77.18 556.73,75.75 C529.47,88.14 449.82,124.34 426.70,135.73 C411.35,143.68 401.81,149.74 398.16,152.51 C397.37,153.05 396.21,155.96 395.13,156.50 C394.70,156.73 395.19,154.96 395.64,155.14 C397.18,155.74 397.83,157.69 399.22,158.60 C399.73,158.92 411.36,157.88 417.75,156.79 C421.76,156.10 439.74,152.56 445.90,151.70 C451.83,150.89 460.68,150.50 463.60,150.92 C465.02,151.14 467.13,151.89 467.81,152.41 C469.07,153.44 468.78,156.46 467.58,158.30 C465.17,161.86 452.38,172.23 442.01,179.04 C433.69,184.39 403.76,202.72 399.47,205.68 C396.93,207.44 392.67,210.89 392.84,211.86 C393.16,212.93 402.88,208.92 406.58,207.41 C426.99,198.58 476.81,176.48 506.21,163.20 C544.57,145.49 620.96,110.10 659.00,92.42 C689.41,78.29 742.62,53.56 765.42,42.97 C767.73,41.90 771.15,40.31 772.27,39.79 C772.27,39.79 672.84,102.19 672.84,102.19 C672.84,102.19 574.19,142.19 574.19,142.19 C566.92,145.82 544.39,157.07 542.04,158.67 C541.14,159.31 540.80,159.99 541.41,160.01 C543.53,159.98 624.79,132.20 663.15,118.84 C693.75,108.09 730.71,95.11 737.08,92.87 C740.27,93.00 748.09,93.31 752.72,93.49 C761.22,93.81 768.21,94.74 769.97,96.21 C770.77,96.94 770.94,99.09 770.30,99.90 C769.86,100.43 739.54,117.50 726.97,124.34 C710.95,132.63 675.43,150.69 655.94,160.45 C636.45,169.96 600.95,187.01 584.93,194.56 C572.38,200.16 543.28,212.61 541.68,213.02 C540.22,213.36 538.34,212.33 538.14,211.02 C537.89,208.66 548.68,198.34 564.46,183.79 C567.61,180.89 573.13,175.80 575.51,173.61" fill="none" stroke="rgb(0, 0, 0)" stroke-width="5.00" stroke-opacity="1.00" stroke-linejoin="round"/>
</g>
</svg>
