<?xml version="1.0" encoding="UTF-8" standalone="no"?>
<!DOCTYPE svg PUBLIC "-//W3C//DTD SVG 1.1//EN" "http://www.w3.org/Graphics/SVG/1.1/DTD/svg11.dtd">
<svg width="1080.00" height="1920.00" viewBox="0.00 0.00 1080.00 1920.00" xmlns="http://www.w3.org/2000/svg" xmlns:xlink="http://www.w3.org/1999/xlink">
<g stroke-linecap="round" id="レイヤー_2">
<path d="M574.34,174.61 C563.67,179.12 536.45,190.69 519.90,197.74 C511.59,201.55 496.32,209.09 489.36,212.82 C479.79,218.29 464.56,228.15 457.18,234.73 C453.63,237.92 447.61,244.61 446.24,247.13 C445.55,248.48 444.93,250.89 445.02,251.94 C445.15,252.98 446.19,254.77 447.10,255.52 C448.83,256.87 454.22,258.32 457.11,258.67 C462.30,259.25 477.04,258.79 486.58,257.76 C497.91,256.36 540.37,250.09 553.68,248.13 C539.97,253.79 505.24,268.16 484.23,276.86 C471.54,282.33 456.43,290.14 451.90,293.56 C449.69,295.27 447.00,298.31 446.54,299.64 C446.11,301.00 447.01,303.17 448.09,303.96 C450.16,305.43 458.11,307.42 464.17,308.00 C469.49,308.49 487.10,308.72 496.81,308.53 C507.56,308.12 530.86,306.69 541.79,305.74 C552.10,304.66 572.62,301.77 579.23,300.52 C587.31,298.91 601.11,295.10 606.57,292.96 C613.39,290.24 622.02,285.34 625.30,282.37 C626.90,280.87 629.42,277.73 630.33,276.08 C631.21,274.42 632.29,270.92 632.48,269.13 C632.69,266.69 631.24,257.93 631.00,254.11 C630.79,250.51 631.18,243.76 631.78,240.61 C632.40,237.47 634.42,231.68 635.88,228.89 C637.32,226.17 640.93,221.19 643.10,218.94 C645.28,216.70 650.35,212.72 653.28,210.93 C656.47,209.03 663.03,206.45 667.04,205.55 C671.07,204.68 680.23,203.85 685.37,203.89 C693.90,203.99 711.61,206.45 720.45,208.33 C727.63,209.92 749.34,215.78 760.01,219.06 C770.65,222.56 788.38,229.03 794.02,231.76 C796.80,233.12 800.95,235.62 802.31,236.76 C803.58,237.84 804.94,240.02 804.71,241.13 C804.43,242.27 801.53,244.26 798.97,245.06 C793.73,246.63 778.07,247.95 760.80,248.44 C742.56,248.93 721.38,249.49 718.43,249.57 C718.43,249.57 721.99,247.79 721.99,247.79 C721.52,246.81 720.00,243.74 719.66,243.02 C718.34,240.38 716.52,238.29 714.72,237.94 C712.73,237.59 709.87,238.29 708.16,239.34 C701.16,243.70 689.14,252.74 681.50,259.39 C677.61,262.78 671.48,268.94 669.28,271.65 C667.13,274.34 664.44,279.25 664.11,281.01 C663.85,282.64 664.19,285.10 664.94,286.25 C665.70,287.33 668.23,289.10 669.97,289.75 C672.02,290.49 683.72,292.34 687.70,293.61 C689.59,294.22 692.61,295.57 694.26,296.51 C695.75,297.41 698.55,300.00 699.59,301.58 C700.66,303.29 701.53,307.52 701.32,309.79 C701.17,311.09 698.77,321.52 698.09,324.40 C698.09,324.40 697.25,326.43 697.25,326.43 C693.10,326.59 682.97,326.99 676.98,327.22 C665.75,327.65 652.62,329.52 642.24,332.58 C631.75,335.72 616.02,342.15 605.43,347.02 C597.85,350.69 581.88,358.96 573.48,363.56 C564.67,368.63 546.67,379.21 538.09,384.58 C527.97,391.25 517.51,398.89 513.12,402.80 C510.95,404.75 507.53,408.33 506.27,409.97 C505.19,411.39 503.02,415.46 503.08,416.67 C503.20,418.56 504.35,421.11 505.46,421.89 C507.82,423.45 513.45,425.18 517.83,425.68 C522.37,426.18 536.22,426.20 539.63,426.32 C545.13,426.52 555.22,427.67 559.64,428.60 C564.03,429.54 571.60,432.12 574.87,433.79 C578.52,435.70 584.96,440.56 587.47,443.90 C589.84,447.15 592.60,455.01 592.88,459.31 C592.98,460.93 592.88,472.72 593.48,476.89 C594.06,480.74 596.18,487.05 597.85,489.92 C599.47,492.61 604.86,496.70 608.00,498.04 C611.27,499.40 618.99,500.79 623.43,500.84 C628.16,500.85 636.39,499.51 639.93,498.13 C643.44,496.73 649.15,492.59 651.52,489.72 C653.13,487.73 655.96,482.32 656.95,479.30 C657.93,476.25 659.18,469.25 659.43,465.46 C659.54,461.39 659.89,453.25 661.21,449.31 C662.55,445.44 667.34,438.24 670.78,434.90 C676.83,429.14 691.97,420.92 698.13,418.41 C704.66,415.76 719.93,411.08 728.67,409.04 C735.78,407.44 757.42,403.63 767.30,402.26 C779.63,400.87 793.87,399.95 801.26,400.04 C808.62,400.14 821.61,401.70 826.32,403.04 C831.35,404.51 838.55,408.08 841.40,410.48 C844.21,412.91 847.98,418.87 848.96,422.39 C849.85,425.80 849.93,433.87 849.38,438.00 C848.84,441.89 846.71,449.29 845.12,452.79 C843.50,456.29 839.32,462.76 836.57,466.01 C834.23,468.75 828.71,473.96 825.57,476.41 C819.24,481.28 804.66,489.12 794.01,493.39 C779.70,499.07 762.00,506.10 758.60,507.45 C768.64,496.74 785.92,478.18 789.85,471.75 C791.85,468.42 794.28,462.42 794.88,459.31 C795.56,455.51 794.83,449.70 793.37,446.98 C791.85,444.29 786.32,439.36 783.09,438.19 C781.35,437.59 777.45,437.05 775.32,437.10 C770.84,437.29 761.70,440.06 757.94,441.78 C751.69,444.69 739.31,452.21 732.06,457.50 C724.31,463.17 708.59,476.30 703.56,482.45 C701.02,485.61 697.37,491.73 696.26,494.70 C695.18,497.67 694.46,503.46 694.82,506.21 C695.22,508.95 697.20,514.30 698.87,516.90 C700.56,519.48 705.27,524.47 708.28,526.88 C714.38,531.69 728.28,538.77 742.76,544.74 C751.60,548.55 767.87,555.77 774.36,558.93 C781.27,562.47 788.40,566.91 789.45,568.61 C790.03,569.61 790.00,571.57 789.40,572.50 C788.00,574.49 753.64,603.88 741.53,614.54 C725.91,628.35 693.19,657.52 676.08,672.87 C669.33,679.25 656.79,691.73 654.25,694.55 C650.54,698.68 646.54,704.42 646.25,706.03 C646.11,707.05 647.25,708.12 648.46,708.03 C650.94,707.80 658.86,704.84 664.96,701.86 C675.56,696.48 716.76,672.54 736.05,661.04 C752.07,651.05 791.81,625.57 803.43,617.03 C808.82,613.05 817.51,606.08 820.81,603.08 C823.66,600.47 834.17,589.41 836.79,587.87 C837.84,587.26 840.69,586.61 841.84,587.60 C843.25,588.95 842.78,596.10 841.24,604.55 C840.48,608.84 839.47,614.59 839.23,616.06 C850.84,621.66 880.24,635.87 898.02,644.47 C907.90,649.38 923.12,659.05 928.35,663.75 C930.94,666.10 934.94,670.73 936.37,673.02 C937.72,675.24 939.46,680.01 939.65,682.58 C939.82,685.28 938.33,690.74 936.70,693.40 C935.03,696.06 929.89,701.28 926.42,703.84 C920.22,708.37 899.91,718.27 890.92,722.64 C883.84,726.09 871.58,732.05 866.40,734.57 C861.76,732.42 845.54,724.92 842.35,723.91 C838.22,722.65 829.17,721.46 824.48,721.56 C816.94,721.79 800.22,725.92 791.54,729.39 C786.82,731.30 778.01,735.50 774.73,737.64 C771.35,739.88 766.76,744.60 765.56,747.07 C764.38,749.60 764.30,754.58 765.07,757.12 C765.83,759.52 769.10,764.53 771.58,767.11 C776.81,772.47 797.76,785.94 801.18,789.27 C804.17,792.24 807.97,798.39 808.78,801.57 C809.57,804.91 808.92,810.50 808.10,813.47 C806.86,817.75 801.25,826.62 796.85,831.25 C792.42,835.89 779.95,845.87 772.78,850.52 C765.30,855.34 749.00,862.91 740.25,865.62 C731.48,868.30 712.64,871.56 702.67,872.11 C693.89,872.58 674.71,871.71 664.72,870.39 C654.71,869.06 633.70,864.61 622.68,861.51 C611.83,858.24 591.15,852.17 584.10,850.81 C580.61,850.16 575.02,849.56 572.91,849.63 C570.84,849.71 568.08,850.61 567.40,851.42 C566.74,852.25 566.81,854.45 567.56,856.18 C568.51,858.30 572.58,863.62 575.80,866.93 C581.40,872.68 602.79,890.33 620.39,903.61 C628.89,909.78 646.42,922.27 655.31,928.30 C664.07,934.01 681.21,944.53 689.59,949.33 C697.83,953.82 713.93,961.89 721.79,965.46 C731.06,969.38 746.25,975.02 751.91,976.69 C763.75,980.16 785.78,984.00 796.16,984.40 C801.35,984.58 811.37,984.19 816.21,983.62 C821.05,983.02 830.43,981.08 834.88,979.74 C843.32,976.85 859.38,971.62 865.32,970.72 C868.27,970.29 873.33,970.16 875.44,970.45 C877.52,970.76 880.85,972.11 882.09,973.14 C883.32,974.20 884.92,977.03 885.34,978.82 C885.73,980.62 885.65,984.98 885.17,987.52 C884.18,992.63 878.67,1005.77 874.16,1013.81 C869.59,1021.92 838.58,1069.75 832.23,1080.76 C830.49,1083.92 827.20,1090.05 825.77,1092.88 C824.46,1095.58 820.44,1104.20 820.44,1107.20 C820.47,1109.29 821.69,1111.87 823.35,1113.79 C825.16,1115.88 826.19,1117.65 826.18,1119.07 C826.12,1120.39 824.32,1123.31 823.10,1124.19 C822.15,1124.84 785.49,1135.48 768.02,1139.99 C747.35,1144.95 707.56,1154.04 691.06,1157.20 C674.56,1159.98 661.37,1160.89 661.35,1160.89 C659.67,1161.02 658.00,1160.61 656.76,1159.69 C655.81,1158.95 655.06,1156.85 655.23,1155.56 C655.72,1152.83 660.04,1147.07 665.51,1141.15 C671.07,1135.12 677.53,1128.10 678.43,1127.12 C678.43,1127.12 680.13,1127.12 680.13,1127.12 C692.32,1128.40 715.56,1130.83 722.25,1130.27 C726.64,1129.87 735.21,1127.97 739.40,1126.47 C743.69,1124.90 751.07,1121.11 754.88,1118.58 C758.44,1116.20 765.38,1110.52 768.77,1107.22 C775.48,1100.65 788.32,1083.75 791.59,1077.65 C793.17,1074.66 794.75,1069.88 794.75,1068.09 C794.70,1066.20 792.88,1063.95 790.78,1063.45 C788.68,1063.00 782.48,1063.59 778.39,1064.64 C773.29,1065.98 747.70,1075.44 739.08,1076.98 C734.91,1077.70 727.76,1077.97 724.71,1077.54 C722.24,1077.16 718.90,1076.21 717.23,1075.36 C715.67,1074.52 713.08,1072.32 712.07,1070.95 C710.02,1068.08 707.88,1058.25 707.07,1056.74 C706.18,1055.14 703.55,1052.44 701.86,1051.39 C700.12,1050.36 695.88,1048.85 693.38,1048.40 C690.00,1047.82 687.31,1047.79 685.29,1048.26 C685.01,1048.33 667.38,1052.03 660.92,1053.52 C646.52,1057.19 612.59,1066.93 594.52,1072.32 C573.51,1079.09 532.12,1092.82 511.75,1099.79 C494.54,1106.01 463.86,1118.04 455.57,1121.74 C450.92,1123.93 443.46,1127.74 440.14,1129.76 C439.11,1130.54 436.72,1131.26 436.49,1132.38 C435.95,1135.25 436.12,1138.08 437.02,1140.85 C437.20,1141.37 438.02,1141.59 439.48,1141.51 C439.61,1141.50 440.63,1141.67 442.55,1142.03 C449.36,1142.93 479.67,1142.10 485.96,1141.89 C512.45,1141.48 534.17,1143.18 541.75,1144.40 C546.16,1145.14 555.82,1148.27 558.89,1150.69 C560.30,1151.87 561.99,1154.49 562.27,1155.95 C562.65,1158.40 558.93,1166.63 558.74,1169.31 C558.64,1171.03 559.25,1174.45 559.94,1176.14 C561.47,1179.63 567.24,1185.76 570.78,1188.28 C577.23,1192.79 592.95,1201.03 603.40,1205.37 C614.47,1209.67 635.19,1217.93 639.22,1220.84 C641.15,1222.28 642.17,1224.61 641.26,1225.52 C639.78,1226.89 631.60,1228.04 626.57,1228.18 C623.14,1228.27 607.64,1227.83 599.64,1227.38 C590.38,1226.68 562.18,1224.23 559.40,1224.02 C548.47,1223.23 528.34,1224.11 519.44,1225.78 C515.00,1226.63 506.66,1228.94 502.77,1230.39 C498.88,1231.86 491.65,1235.41 488.30,1237.49 C481.80,1241.58 471.24,1251.72 467.26,1257.21 C463.28,1262.75 456.94,1275.64 454.57,1282.99 C452.22,1290.37 449.13,1306.94 448.38,1316.13 C447.66,1325.33 447.83,1345.97 448.84,1355.05 C449.89,1364.27 453.94,1380.48 456.93,1387.45 C459.95,1394.40 467.92,1406.05 472.87,1410.75 C477.88,1415.45 489.13,1422.14 495.14,1424.37 C500.97,1426.50 514.08,1429.12 521.36,1429.60 C528.65,1430.06 544.69,1429.32 553.43,1428.13 C562.19,1426.91 579.92,1423.09 591.36,1419.95 C627.58,1408.96 684.24,1391.71 704.67,1385.47 C683.51,1396.93 631.77,1424.94 601.19,1441.50 C563.85,1461.71 496.52,1498.17 466.53,1514.41 C455.07,1520.62 435.51,1531.21 427.41,1535.59 C427.41,1535.59 428.77,1536.44 428.77,1536.44 C428.77,1536.44 426.31,1537.88 426.31,1537.88 C426.31,1537.88 428.43,1538.47 428.43,1538.47 C428.43,1538.47 427.41,1538.47 427.41,1538.47 C427.41,1538.47 480.46,1500.34 480.46,1500.34 C475.10,1499.02 455.55,1494.20 453.23,1493.40 C449.09,1491.95 441.87,1487.44 439.00,1484.51 C436.25,1481.65 432.26,1474.98 430.88,1471.34 C429.58,1467.81 427.91,1459.79 427.54,1455.30 C427.09,1449.54 428.58,1416.51 428.77,1412.54 C428.77,1412.54 435.71,1404.41 435.71,1404.41 C435.71,1404.41 434.87,1403.56 434.87,1403.56 C434.87,1403.56 449.44,1394.57 449.44,1394.57 C449.44,1394.57 443.51,1390.51 443.51,1390.51 C430.94,1383.97 407.05,1371.50 401.73,1367.42 C398.29,1364.74 392.96,1359.07 391.06,1356.07 C388.92,1352.61 387.08,1346.50 387.07,1342.26 C387.11,1338.30 389.24,1329.91 391.32,1325.48 C393.04,1321.88 399.99,1311.05 401.22,1308.20 C401.93,1306.47 402.56,1303.59 402.47,1302.44 C402.34,1301.31 401.29,1299.64 400.36,1299.08 C398.62,1298.13 392.80,1298.16 389.73,1298.67 C383.92,1299.69 368.30,1304.91 356.31,1309.84 C344.74,1314.89 319.89,1326.03 314.01,1328.08 C311.29,1329.02 306.12,1330.24 304.97,1329.37 C304.06,1328.58 310.09,1322.74 313.33,1320.02 C319.33,1315.17 347.54,1294.88 362.61,1284.31 C372.19,1277.81 391.17,1264.77 400.57,1258.24 C409.11,1252.05 424.47,1240.35 431.30,1234.85 C445.50,1222.85 458.38,1209.27 460.21,1206.61 C462.83,1202.70 465.31,1195.59 465.14,1192.52 C465.02,1191.00 464.10,1188.17 463.29,1186.87 C461.61,1184.28 455.71,1180.20 450.95,1178.34 C448.12,1177.25 426.89,1169.83 419.70,1167.40 C410.93,1164.60 397.15,1161.18 391.69,1160.66 C388.82,1160.42 383.50,1161.85 380.02,1163.82 C375.10,1166.67 361.57,1178.42 356.71,1183.17 C346.63,1193.41 322.67,1221.26 311.26,1233.20 C305.34,1239.12 293.56,1250.07 287.15,1255.61 C280.36,1261.35 266.48,1271.26 259.67,1275.23 C252.31,1279.50 239.28,1285.06 232.34,1286.75 C225.39,1288.40 210.72,1289.30 203.05,1288.35 C194.83,1287.29 177.78,1281.90 169.34,1277.68 C164.93,1275.46 158.21,1270.89 155.66,1268.40 C153.16,1265.90 149.91,1260.56 149.15,1257.72 C148.43,1254.81 148.77,1249.24 149.76,1246.10 C150.73,1243.15 154.09,1236.99 156.48,1233.79 C161.39,1227.28 171.10,1218.58 184.72,1207.19 C190.92,1202.01 201.49,1193.16 205.88,1189.49 C201.12,1193.00 185.41,1204.59 182.86,1207.81 C181.65,1209.40 179.93,1212.68 179.42,1214.38 C178.57,1217.39 179.16,1223.63 179.96,1226.05 C180.78,1228.40 183.53,1233.28 185.46,1235.80 C187.39,1238.29 193.30,1244.43 195.54,1246.19 C198.61,1248.57 206.07,1251.28 210.38,1251.59 C214.71,1251.85 224.60,1250.28 230.10,1248.47 C235.50,1246.65 242.26,1242.54 243.59,1241.73 C254.58,1234.79 280.23,1216.21 294.39,1205.20 C309.53,1192.94 342.72,1164.65 359.91,1149.35 C378.14,1132.47 400.60,1109.87 408.09,1100.99 C412.00,1096.28 417.75,1088.14 419.58,1084.72 C421.36,1081.38 422.89,1075.52 422.84,1075.24 C422.42,1073.23 421.76,1071.29 420.85,1069.42 C420.55,1068.83 416.01,1067.18 413.53,1066.98 C408.51,1066.63 393.21,1069.26 382.94,1072.25 C376.44,1074.15 348.24,1083.61 337.23,1086.99 C326.86,1089.92 306.69,1094.81 299.63,1095.99 C291.53,1097.33 276.67,1098.31 270.28,1097.52 C265.75,1096.93 258.23,1094.28 255.49,1092.30 C252.79,1090.30 249.32,1084.94 248.53,1081.60 C247.80,1078.21 248.25,1070.06 249.30,1066.04 C250.36,1062.16 253.97,1055.27 256.52,1052.25 C259.11,1049.26 265.79,1044.14 269.87,1042.01 C274.18,1039.80 279.94,1037.85 284.87,1036.64 C291.19,1035.20 306.01,1033.28 314.52,1032.81 C321.44,1032.49 342.57,1032.53 353.02,1032.93 C364.03,1033.57 386.14,1035.04 396.01,1035.44 C407.92,1035.64 420.91,1035.26 426.97,1034.55 C432.99,1033.82 441.14,1031.55 444.35,1029.69 C445.92,1028.73 447.96,1026.11 448.77,1023.85 C449.31,1022.23 447.04,1016.22 444.59,1013.13 C442.08,1010.02 434.17,1002.93 428.92,999.06 C414.36,988.56 401.06,977.98 396.78,973.42 C394.69,971.17 392.75,968.18 392.15,966.27 C391.90,965.32 392.62,963.96 393.80,963.23 C394.69,962.70 400.74,962.80 404.66,963.45 C408.91,964.18 423.29,967.86 425.03,968.27 C430.39,969.52 440.92,971.00 445.65,971.16 C450.36,971.29 458.80,970.45 462.75,969.45 C466.66,968.42 473.14,964.98 475.88,962.68 C478.64,960.31 483.24,954.29 485.07,950.66 C486.86,947.01 489.68,937.95 490.05,934.08 C490.40,929.98 488.88,922.62 487.02,919.39 C485.10,916.18 478.23,909.86 474.95,908.30 C473.94,907.83 440.72,900.77 427.22,898.29 C412.17,895.84 379.99,890.98 362.86,888.57 C343.64,886.19 303.14,881.48 281.85,879.14 C237.91,874.75 159.88,866.83 125.79,863.30 C102.28,860.65 59.03,855.47 59.03,855.39 C59.14,854.42 62.59,853.43 65.27,853.62 C65.68,853.64 140.93,856.16 157.98,855.95 C169.65,855.55 184.78,854.44 191.25,853.41 C196.28,852.54 202.88,850.70 205.86,848.67 C207.37,847.59 209.24,845.12 209.59,843.73 C209.88,842.32 209.29,839.17 208.42,837.47 C206.81,834.44 185.63,811.78 184.78,810.88 C190.21,812.33 203.77,815.98 211.89,818.18 C223.10,821.24 238.37,826.48 245.23,829.62 C249.10,831.41 256.21,835.39 259.24,837.67 C262.37,840.08 267.08,845.90 267.90,846.59 C270.09,848.38 277.81,850.16 282.75,850.03 C295.09,849.61 320.10,842.50 333.18,838.15 C339.34,836.01 347.39,832.38 350.77,830.18 C354.08,827.98 358.57,823.21 359.76,820.62 C360.89,818.03 361.03,812.65 360.03,809.49 C358.77,805.64 352.13,796.66 347.05,791.92 C341.93,787.16 328.00,776.94 319.22,771.49 C313.91,768.21 292.16,755.96 283.98,751.69 C274.73,747.13 262.08,741.51 256.05,739.38 C253.16,738.44 246.88,736.37 241.81,736.52 C239.20,736.63 234.42,737.79 232.40,738.79 C228.98,740.55 222.57,748.77 221.09,749.57 C220.08,750.07 218.29,749.76 217.60,748.92 C216.26,747.19 215.77,741.87 215.72,740.73 C215.51,736.11 216.13,722.56 216.73,714.55 C218.03,700.49 220.33,686.68 223.34,678.19 C224.87,673.97 228.62,665.98 230.86,662.20 C235.44,654.55 245.90,642.99 252.18,637.92 C258.11,633.16 271.87,624.83 279.70,621.26 C287.58,617.69 301.69,612.94 313.65,609.44 C323.45,606.85 337.30,603.77 344.30,602.74 C350.37,601.85 368.22,600.67 377.27,601.89 C382.30,602.60 391.12,605.22 394.86,607.12 C397.56,608.52 418.21,623.44 419.79,624.57 C419.79,624.57 378.93,616.60 378.93,616.60 C378.93,616.60 380.29,617.45 380.29,617.45 C380.29,617.45 379.27,617.96 379.27,617.96 C379.27,617.96 356.90,628.47 356.90,628.47 C356.90,628.47 358.59,628.98 358.59,628.98 C358.59,628.98 363.34,630.50 363.34,630.50 C363.34,630.50 361.81,630.50 361.81,630.50 C361.81,630.50 363.34,630.50 363.34,630.50 C363.34,630.50 361.48,630.50 361.48,630.50 C361.48,630.50 363.34,630.50 363.34,630.50 C363.34,630.50 362.32,630.50 362.32,630.50 C362.32,630.50 363.34,631.01 363.34,631.01 C363.34,631.01 365.54,631.69 365.54,631.69 C367.14,633.21 373.26,639.07 373.63,639.40 C375.39,640.93 378.56,642.87 380.79,643.70 C384.84,645.16 393.28,645.86 397.50,645.61 C404.60,645.13 423.65,640.72 430.13,637.67 C433.57,636.02 439.32,631.86 440.80,629.99 C442.58,627.65 443.98,621.69 443.50,618.44 C442.98,615.28 439.70,608.12 437.21,604.20 C432.75,597.29 421.81,585.46 417.05,580.72 C412.79,576.69 403.40,568.43 398.27,564.19 C394.68,561.27 389.80,558.01 386.13,556.29 C382.53,554.62 374.17,551.89 369.42,550.84 C359.86,548.77 341.27,547.49 328.64,547.40 C314.23,547.63 284.50,550.04 262.43,552.82 C242.82,555.77 202.19,562.78 184.74,565.52 C166.63,567.98 145.13,569.88 138.57,569.65 C137.05,569.55 135.22,569.47 134.76,568.89 C133.95,567.81 133.59,566.52 133.67,565.02 C133.88,562.61 159.77,545.86 163.81,542.02 C167.39,538.55 172.04,531.44 173.11,527.80 C174.01,524.56 173.76,517.58 172.98,514.86 C172.14,512.05 169.01,506.31 166.71,503.39 C162.05,497.55 150.57,488.41 137.47,479.55 C124.56,470.85 109.53,460.74 107.40,459.31 C132.36,448.43 194.27,421.43 231.22,405.32 C245.70,399.00 270.65,388.12 281.13,383.55 C281.13,383.55 235.71,404.23 235.71,404.23 C237.25,405.49 241.06,408.61 243.33,410.47 C245.42,412.15 247.81,413.53 249.88,414.06 C254.12,415.04 264.62,413.52 268.61,412.17 C275.31,409.91 286.11,405.39 296.53,400.49 C307.91,394.82 356.21,369.01 357.24,368.47 C357.24,368.47 288.93,337.45 288.93,337.45 C288.93,337.45 291.30,318.30 291.30,318.30 C291.30,318.30 283.85,301.52 283.85,301.52 C283.85,301.52 384.10,241.85 384.10,241.85 C357.00,248.85 288.75,266.43 247.61,277.00 C206.89,286.79 181.81,291.47 181.53,291.57 C180.47,291.97 179.91,292.04 179.87,291.79 C179.63,290.37 180.77,288.77 180.14,287.47 C179.84,286.81 176.96,290.22 176.75,291.13 C176.54,292.28 176.88,292.45 177.77,291.64 C179.65,289.61 181.54,287.57 183.42,285.54 C183.97,285.05 204.17,275.52 206.31,274.48 C212.25,271.57 221.28,266.02 224.01,263.61 C225.32,262.41 227.13,260.16 227.62,259.11 C228.08,258.04 228.12,256.18 227.74,255.24 C227.12,253.85 223.39,251.30 220.42,250.26 C217.39,249.23 209.06,247.58 203.75,246.95 C198.03,246.30 180.48,245.33 178.41,245.18 C172.31,244.71 162.43,242.96 159.05,241.74 C155.75,240.49 152.06,237.29 151.68,235.33 C151.37,233.44 153.00,229.94 154.47,228.13 C156.98,225.13 165.89,218.15 172.29,214.18 C177.91,210.71 196.03,201.14 205.92,196.31 C239.95,180.40 279.17,162.07 284.35,159.65 C271.90,166.00 234.68,185.12 226.83,189.91 C223.79,191.78 217.45,196.13 216.98,196.60 C215.46,198.20 214.20,201.06 214.72,202.27 C215.96,204.84 228.55,211.29 237.82,214.88 C243.75,217.10 256.69,221.88 263.71,224.44 C277.27,229.29 288.21,232.57 296.99,233.34 C301.33,233.70 310.12,233.56 314.56,233.05 C323.47,232.00 340.54,226.74 348.78,222.90 C355.81,219.59 370.12,211.01 377.39,205.73 C384.66,200.43 398.48,188.68 406.96,180.59 C412.54,175.10 428.28,158.54 434.15,152.07 C439.34,146.11 447.99,135.52 450.81,131.38 C453.59,127.27 456.78,119.69 456.54,119.03 C455.97,117.55 455.01,116.28 453.66,115.22 C453.13,114.81 444.97,115.88 440.30,117.46 C435.30,119.18 393.15,137.67 386.73,140.50 C390.28,137.51 398.95,130.20 404.07,125.89 C413.64,117.83 424.74,109.88 433.37,105.34 C441.86,100.92 459.16,94.28 467.46,91.81 C474.51,89.72 491.49,85.84 502.71,83.80 C520.02,81.21 547.03,77.18 556.73,75.75 C545.19,82.62 510.27,103.41 499.56,110.20 C490.18,116.46 478.94,124.78 476.82,127.02 C475.17,128.81 472.99,132.12 472.59,133.63 C472.24,135.09 472.91,137.57 473.88,138.53 C474.60,139.24 477.06,141.54 477.10,143.04 C477.07,144.48 475.21,148.29 473.47,150.38 C469.38,155.18 456.39,165.41 445.93,172.95 C432.87,181.97 397.75,204.96 393.04,208.92 C391.81,209.92 391.09,211.56 391.50,212.32 C392.17,213.33 403.10,208.85 406.94,207.29 C427.76,198.33 478.11,176.05 507.65,162.73 C545.88,145.06 621.91,109.79 659.72,92.18 C689.95,78.11 742.82,53.50 765.46,42.96 C767.76,41.89 771.16,40.30 772.27,39.79 C772.27,39.79 672.84,102.19 672.84,102.19 C672.84,102.19 574.19,142.19 574.19,142.19 C578.42,143.60 595.40,149.27 595.51,149.31 C599.67,150.59 607.93,151.52 612.79,151.27 C622.16,150.70 640.37,145.35 647.80,142.38 C653.88,139.94 668.54,132.89 678.24,127.71 C687.78,122.30 735.11,94.05 737.08,92.87 C740.27,93.00 748.09,93.31 752.72,93.49 C761.22,93.81 768.21,94.74 769.97,96.21 C770.77,96.94 770.94,99.09 770.30,99.90 C769.86,100.43 739.54,117.50 726.97,124.34 C710.95,132.63 675.43,150.69 655.94,160.45 C636.45,169.96 600.95,187.01 584.93,194.56 C572.38,200.16 543.28,212.61 541.68,213.02 C540.22,213.36 538.34,212.33 538.14,211.02 C537.89,208.66 548.68,198.34 564.46,183.79 C567.61,180.89 573.13,175.80 575.51,173.61" fill="none" stroke="rgb(0, 0, 0)" stroke-width="5.00" stroke-opacity="1.00" stroke-linejoin="round"/>
</g>
</svg>
