<?xml version="1.0" encoding="UTF-8" standalone="no"?>
<!DOCTYPE svg PUBLIC "-//W3C//DTD SVG 1.1//EN" "http://www.w3.org/Graphics/SVG/1.1/DTD/svg11.dtd">
<svg width="1080.00" height="1920.00" viewBox="0.00 0.00 1080.00 1920.00" xmlns="http://www.w3.org/2000/svg" xmlns:xlink="http://www.w3.org/1999/xlink">
<g stroke-linecap="round" id="レイヤー_2">
<path d="M510.52,175.66 C507.83,179.84 498.14,194.86 496.63,197.08 C491.78,204.16 480.01,218.40 473.23,225.37 C469.84,228.86 462.09,236.24 458.73,239.21 C452.81,244.38 448.50,248.84 447.57,251.29 C447.17,252.46 447.36,254.46 447.95,255.29 C449.08,256.77 453.95,258.32 456.67,258.67 C461.48,259.26 474.92,258.84 485.44,257.77 C496.85,256.38 540.11,250.09 553.68,248.13 C539.97,253.79 505.24,268.16 484.23,276.86 C471.54,282.33 456.43,290.14 451.90,293.56 C449.69,295.27 447.00,298.31 446.54,299.64 C446.11,301.00 447.01,303.17 448.09,303.96 C450.16,305.43 458.11,307.42 464.17,308.00 C469.49,308.49 487.10,308.72 496.81,308.53 C507.56,308.12 530.86,306.69 541.79,305.74 C552.10,304.66 572.62,301.77 579.23,300.52 C587.31,298.91 601.11,295.10 606.57,292.96 C613.39,290.24 622.02,285.34 625.30,282.37 C626.90,280.87 629.42,277.73 630.33,276.08 C631.21,274.42 632.29,270.92 632.48,269.13 C632.69,266.69 631.24,257.93 631.00,254.11 C630.79,250.51 631.18,243.76 631.78,240.61 C632.40,237.47 634.42,231.68 635.88,228.89 C637.32,226.17 640.93,221.19 643.10,218.94 C645.28,216.70 650.35,212.72 653.28,210.93 C656.47,209.03 663.03,206.45 667.04,205.55 C671.07,204.68 680.23,203.85 685.37,203.89 C693.90,203.99 711.61,206.45 720.45,208.33 C727.63,209.92 749.34,215.78 760.01,219.06 C770.65,222.56 788.38,229.03 794.02,231.76 C796.80,233.12 800.95,235.62 802.31,236.76 C803.58,237.84 804.94,240.02 804.71,241.13 C804.43,242.27 801.53,244.26 798.97,245.06 C793.73,246.63 778.07,247.95 760.80,248.44 C742.56,248.93 721.38,249.49 718.43,249.57 C718.43,249.57 721.99,247.79 721.99,247.79 C721.52,246.81 720.00,243.74 719.66,243.02 C718.34,240.38 716.52,238.29 714.72,237.94 C712.73,237.59 709.87,238.29 708.16,239.34 C701.16,243.70 689.14,252.74 681.50,259.39 C677.61,262.78 671.48,268.94 669.28,271.65 C667.13,274.34 664.44,279.25 664.11,281.01 C663.85,282.64 664.19,285.10 664.94,286.25 C665.70,287.33 668.23,289.10 669.97,289.75 C672.02,290.49 683.72,292.34 687.70,293.61 C689.59,294.22 692.61,295.57 694.26,296.51 C695.75,297.41 698.55,300.00 699.59,301.58 C700.66,303.29 701.53,307.52 701.32,309.79 C701.17,311.09 698.77,321.52 698.09,324.40 C698.09,324.40 697.25,326.43 697.25,326.43 C687.66,328.45 663.97,333.42 649.86,336.36 C632.17,339.91 596.12,346.64 577.74,349.83 C558.84,352.63 520.43,357.88 500.93,360.34 C490.98,361.42 470.96,363.49 460.90,364.49 C451.12,365.50 435.65,368.61 430.09,370.69 C427.33,371.73 422.87,374.09 421.17,375.39 C419.49,376.70 417.19,379.59 416.57,381.16 C415.93,382.88 415.89,386.13 416.54,388.18 C417.19,390.13 419.67,394.30 421.52,396.54 C425.26,401.02 437.60,411.14 446.20,416.79 C453.32,421.44 477.42,435.51 484.77,440.46 C493.17,446.13 505.83,456.62 510.09,461.44 C512.19,463.84 515.29,468.30 516.47,470.63 C517.97,473.71 519.49,480.01 518.51,483.45 C518.00,485.08 516.13,488.16 514.77,489.61 C511.95,492.50 502.75,497.58 496.51,499.68 C490.29,501.64 478.84,505.33 475.19,506.80 C471.74,508.21 468.52,510.33 468.75,511.05 C469.23,512.13 476.90,512.13 483.21,511.81 C492.07,511.20 529.53,507.10 549.08,504.76 C560.14,503.23 581.45,500.05 591.13,498.34 C600.25,496.57 616.80,492.81 624.24,490.83 C632.16,488.54 645.20,483.89 651.10,480.73 C655.86,478.16 663.14,472.38 665.39,469.39 C667.57,466.39 669.32,459.94 668.82,456.77 C668.64,455.71 667.23,450.85 667.07,450.08 C666.45,446.99 667.40,440.75 668.94,437.95 C670.53,435.16 675.96,429.96 679.57,427.75 C684.73,424.64 696.96,419.96 703.82,418.11 C710.73,416.26 725.51,413.49 736.43,411.90 C747.62,410.55 833.43,402.78 836.20,402.40 C839.99,401.93 842.13,402.04 842.50,403.09 C842.84,404.27 841.96,406.48 840.73,408.04 C840.56,408.25 829.13,423.12 824.51,428.94 C799.66,458.60 766.71,497.85 758.60,507.45 C763.24,503.18 774.84,492.50 781.79,486.08 C786.95,481.31 792.52,475.10 794.37,471.97 C796.15,468.89 797.04,463.53 796.14,461.40 C795.24,459.39 791.85,456.55 789.59,455.52 C787.21,454.47 780.88,452.92 776.94,452.41 C769.01,451.43 746.82,451.63 737.31,452.63 C727.90,453.65 712.04,457.56 705.34,460.73 C701.44,462.61 694.70,467.29 692.03,469.99 C689.40,472.70 685.26,479.17 684.15,482.34 C683.03,485.71 683.28,492.43 684.65,495.76 C686.09,499.09 690.94,505.09 695.38,508.97 C700.48,513.38 713.20,521.37 721.61,525.46 C730.06,529.55 757.42,539.99 761.46,541.69 C766.13,543.69 773.68,547.61 776.56,549.54 C779.38,551.47 783.23,555.27 784.25,557.14 C785.22,559.01 785.37,562.41 784.54,564.48 C783.91,565.96 781.96,568.54 780.44,569.88 C777.37,572.54 767.27,577.77 760.24,580.33 C748.56,584.55 703.77,595.44 685.54,600.98 C676.78,603.83 660.35,609.76 652.68,612.83 C642.56,617.12 625.85,625.53 617.81,630.71 C609.80,635.89 596.44,647.34 591.99,652.85 C589.71,655.72 586.44,661.45 585.48,664.26 C584.55,667.08 584.03,672.63 584.43,675.37 C584.87,678.11 587.00,683.33 588.85,686.18 C591.56,690.26 600.40,698.29 606.51,702.21 C612.67,706.13 628.45,713.83 637.93,717.55 C656.69,724.86 688.55,738.34 700.57,744.30 C708.94,748.61 716.12,752.55 720.98,756.16 C725.54,759.61 731.56,767.34 732.57,768.67 C734.24,770.84 736.23,772.67 736.40,772.20 C736.91,770.17 724.75,743.44 724.20,742.20 C735.80,737.76 775.11,722.75 782.94,720.29 C791.74,717.56 807.00,714.28 814.37,713.54 C818.76,713.14 828.88,713.28 833.90,714.25 C838.70,715.22 846.45,718.66 850.11,721.45 C850.22,721.53 863.74,732.42 866.40,734.57 C862.20,732.39 847.47,724.79 844.30,723.77 C840.23,722.49 830.54,721.35 825.23,721.51 C817.45,721.79 799.55,725.45 790.15,728.31 C785.50,729.74 772.82,734.21 770.31,735.23 C765.60,737.17 759.37,741.09 757.90,743.04 C757.22,744.02 756.64,745.97 756.75,746.94 C757.06,748.89 760.73,752.59 764.54,754.74 C767.80,756.54 778.21,760.60 785.70,762.98 C792.89,765.10 809.56,769.43 819.04,771.63 C829.65,773.87 852.30,778.40 864.33,780.69 C875.86,783.04 897.43,788.19 904.44,790.37 C912.45,792.88 924.53,798.10 928.60,800.79 C930.61,802.14 933.66,804.89 934.70,806.28 C935.46,807.33 936.95,810.73 936.90,813.47 C936.87,814.58 935.44,817.95 934.30,819.47 C931.98,822.52 923.42,828.81 917.17,832.05 C910.88,835.29 897.03,840.89 884.15,845.39 C864.31,852.11 825.92,865.26 807.37,871.70 C789.48,878.07 751.16,892.03 730.73,899.63 C721.34,903.25 703.13,910.39 694.30,913.91 C684.61,917.86 672.04,923.97 667.16,927.11 C662.33,930.24 656.48,936.19 655.46,939.00 C655.01,940.34 654.93,943.80 655.53,945.35 C656.26,947.11 659.33,950.53 661.68,952.19 C666.47,955.51 681.42,961.30 693.91,964.67 C704.46,967.39 723.79,971.87 732.56,973.64 C742.38,975.39 759.56,977.76 768.60,977.91 C773.34,977.96 780.89,977.16 783.44,976.34 C787.01,975.19 790.79,975.27 793.37,976.65 C795.94,978.08 800.76,983.02 804.03,987.62 C807.06,991.94 812.71,1002.36 815.66,1009.07 C817.66,1013.64 826.21,1036.88 827.49,1041.31 C828.74,1045.71 830.42,1054.54 830.81,1058.79 C831.17,1063.03 831.02,1071.27 830.51,1075.27 C829.97,1079.27 828.01,1087.01 826.59,1090.76 C823.94,1097.62 815.87,1109.79 810.82,1115.24 C805.73,1120.68 793.13,1130.88 785.62,1135.63 C778.29,1140.25 760.94,1148.89 752.55,1152.99 C736.85,1160.26 716.93,1168.08 710.89,1170.17 C705.89,1171.78 698.71,1173.55 692.73,1174.31 C687.02,1175.00 677.51,1174.59 673.79,1173.49 C670.54,1172.49 664.53,1169.07 662.68,1167.22 C660.95,1165.43 658.96,1160.79 659.12,1157.57 C659.35,1154.19 662.87,1146.73 666.43,1142.13 C671.64,1135.62 677.64,1128.11 678.43,1127.12 C678.43,1127.12 680.13,1127.12 680.13,1127.12 C681.07,1132.55 682.09,1138.72 683.13,1140.65 C684.06,1142.30 686.95,1144.02 689.11,1144.49 C690.83,1144.80 696.87,1143.68 700.29,1142.36 C704.21,1140.82 711.39,1136.83 714.53,1134.20 C717.62,1131.56 722.50,1125.28 723.93,1122.11 C725.35,1118.85 727.06,1112.11 727.43,1108.30 C728.06,1101.53 726.46,1084.16 724.71,1077.54 C723.09,1071.55 716.53,1058.30 713.43,1055.38 C711.11,1053.25 703.79,1050.08 698.94,1049.10 C692.78,1047.91 687.35,1047.78 676.14,1049.06 C662.88,1050.79 631.14,1055.91 614.16,1058.82 C594.21,1062.67 552.51,1071.12 530.76,1075.72 C511.64,1080.19 479.50,1088.71 467.60,1092.67 C455.34,1097.08 448.17,1100.81 446.19,1101.97 C445.07,1102.77 442.96,1103.38 442.48,1104.65 C441.31,1107.88 440.70,1111.20 440.65,1114.61 C440.65,1115.29 441.22,1115.79 442.36,1116.13 C442.40,1116.14 443.16,1116.63 444.65,1117.61 C449.87,1120.51 465.18,1124.56 482.84,1127.96 C505.92,1132.74 532.03,1140.05 538.69,1142.52 C543.71,1144.46 551.39,1148.07 555.22,1150.83 C557.21,1152.30 560.15,1155.27 561.09,1156.77 C561.97,1158.26 562.70,1161.38 562.49,1162.81 C562.31,1163.85 560.47,1168.43 560.33,1168.91 C559.93,1170.27 559.80,1173.40 560.07,1174.86 C560.68,1177.79 564.65,1183.47 568.01,1186.18 C571.74,1189.15 586.14,1196.29 594.92,1199.53 C599.72,1201.29 612.27,1205.26 614.25,1205.96 C618.80,1207.56 626.49,1211.32 629.35,1213.34 C632.16,1215.36 635.96,1219.75 636.94,1222.12 C637.84,1224.38 637.95,1229.09 637.38,1231.44 C636.80,1233.71 634.46,1238.53 632.71,1241.06 C629.14,1246.15 617.52,1257.16 609.01,1263.53 C599.99,1270.16 585.37,1279.66 577.73,1283.85 C570.33,1287.89 554.16,1295.04 544.78,1297.82 C535.47,1300.55 522.51,1302.41 508.89,1303.03 C504.92,1303.22 499.18,1305.21 497.51,1306.95 C495.90,1308.73 495.03,1313.82 495.78,1317.13 C496.85,1321.69 503.15,1332.88 506.62,1337.82 C509.67,1342.12 519.46,1354.22 524.80,1360.39 C539.35,1376.56 600.44,1437.34 620.13,1456.95 C595.81,1466.87 534.35,1491.95 497.21,1507.11 C468.34,1518.89 433.45,1533.13 427.41,1535.59 C427.41,1535.59 428.77,1536.44 428.77,1536.44 C428.77,1536.44 426.31,1537.88 426.31,1537.88 C426.31,1537.88 428.43,1538.47 428.43,1538.47 C428.43,1538.47 427.41,1538.47 427.41,1538.47 C427.41,1538.47 480.46,1500.34 480.46,1500.34 C476.84,1496.59 464.25,1483.54 462.01,1480.96 C456.26,1474.27 446.75,1459.32 442.93,1451.22 C439.13,1443.11 429.98,1416.12 428.77,1412.54 C428.77,1412.54 435.71,1404.41 435.71,1404.41 C435.71,1404.41 434.87,1403.56 434.87,1403.56 C434.87,1403.56 520.16,1426.67 520.16,1426.67 C520.16,1426.67 558.99,1437.51 558.99,1437.51 C535.45,1426.25 462.93,1391.64 441.26,1380.75 C425.92,1372.68 400.02,1357.91 390.34,1351.47 C387.56,1349.62 380.41,1343.46 377.61,1340.31 C374.93,1337.25 371.59,1331.46 370.93,1328.73 C370.33,1326.03 371.14,1320.93 372.55,1318.24 C374.00,1315.58 378.86,1310.01 382.27,1307.11 C388.33,1302.03 403.43,1293.06 409.83,1289.55 C416.78,1285.94 432.35,1278.42 440.96,1274.51 C460.37,1266.29 499.90,1249.20 509.83,1243.61 C515.53,1240.39 522.16,1235.62 525.60,1232.24 C527.03,1230.95 528.05,1227.41 527.65,1224.71 C527.52,1223.95 525.11,1222.56 524.00,1221.90 C519.03,1219.57 494.66,1216.70 486.09,1214.89 C476.28,1212.78 458.63,1206.38 451.32,1202.32 C447.20,1200.00 440.12,1194.70 437.18,1191.72 C434.61,1189.09 422.64,1173.38 418.03,1169.18 C414.90,1166.38 410.88,1163.79 406.91,1162.13 C403.65,1160.81 397.20,1159.33 393.90,1159.15 C390.31,1159.01 383.79,1160.81 380.06,1163.01 C372.99,1167.28 362.24,1179.10 358.83,1183.42 C356.17,1186.81 346.52,1200.63 342.17,1207.37 C335.78,1217.65 327.48,1228.28 321.07,1233.99 C314.63,1239.67 299.69,1248.81 290.63,1252.62 C283.72,1255.50 268.68,1259.91 260.40,1261.48 C252.10,1263.03 234.05,1264.86 224.30,1265.13 C209.38,1265.53 147.51,1263.17 147.19,1263.17 C145.29,1263.13 143.86,1262.46 143.36,1261.23 C142.82,1259.66 147.97,1252.49 150.43,1249.81 C173.25,1224.96 200.97,1194.80 205.88,1189.49 C200.93,1193.05 184.64,1204.80 182.11,1208.02 C180.91,1209.60 179.29,1212.86 178.88,1214.53 C178.11,1217.86 179.38,1223.25 181.04,1225.99 C182.49,1228.30 186.87,1233.03 189.80,1235.46 C192.68,1237.82 200.93,1243.39 204.39,1245.17 C208.37,1247.17 216.41,1249.39 220.33,1249.56 C224.26,1249.68 231.79,1248.13 235.79,1246.35 C239.83,1244.51 248.69,1237.28 252.81,1232.46 C256.93,1227.60 263.38,1217.56 268.82,1207.68 C272.80,1200.59 282.32,1186.32 288.88,1177.59 C293.71,1171.36 308.68,1153.81 314.49,1147.47 C320.57,1141.05 333.53,1128.01 340.42,1121.39 C355.01,1107.94 390.58,1077.32 398.53,1068.59 C403.55,1063.04 409.65,1053.65 410.72,1049.82 C411.23,1047.92 411.27,1044.59 410.81,1043.07 C410.30,1041.53 407.92,1038.72 406.03,1037.55 C404.13,1036.41 399.05,1034.69 395.87,1034.12 C389.44,1032.99 371.38,1033.02 359.75,1034.17 C355.60,1034.59 323.78,1038.45 313.69,1039.35 C303.27,1040.07 289.81,1040.16 284.88,1039.54 C282.70,1039.26 276.86,1037.64 276.53,1037.12 C275.65,1035.67 275.23,1034.01 275.27,1032.14 C275.30,1031.34 277.94,1028.65 279.15,1027.39 C284.03,1022.94 309.63,1007.55 316.60,1002.00 C319.95,999.30 324.05,994.91 325.14,992.86 C325.64,991.81 325.77,989.87 325.31,988.89 C324.81,987.92 322.40,986.28 320.60,985.66 C316.83,984.46 306.16,983.75 295.87,983.94 C284.85,984.10 281.11,983.75 280.43,983.24 C280.17,983.00 364.68,967.56 402.78,960.83 C414.50,958.81 437.28,954.69 448.32,952.61 C458.30,950.47 477.45,946.17 486.08,943.98 C494.19,941.77 510.18,936.83 515.27,935.00 C521.48,932.71 531.79,928.04 535.89,925.66 C539.74,923.41 545.93,918.35 546.34,917.73 C548.79,913.94 551.17,908.94 550.99,907.90 C550.85,907.25 549.97,901.82 548.77,899.76 C547.53,897.69 543.78,893.49 541.26,891.36 C536.15,887.10 520.83,878.39 510.38,873.81 C500.15,869.51 479.07,861.56 470.90,859.06 C461.53,856.21 443.76,852.14 435.36,850.91 C426.97,849.71 410.11,848.89 402.00,849.44 C392.92,850.08 376.33,853.90 368.81,857.08 C361.31,860.30 349.00,868.51 341.90,875.00 C335.96,880.38 323.50,889.19 317.21,892.45 C310.91,895.68 298.15,899.93 291.53,900.99 C287.94,901.55 279.75,902.12 275.31,901.98 C270.98,901.81 262.28,900.63 257.91,899.61 C253.54,898.56 244.76,895.61 240.35,893.71 C231.70,889.93 214.59,879.26 208.98,874.25 C206.21,871.75 201.94,866.79 200.46,864.34 C199.00,861.90 197.40,857.12 197.22,854.67 C197.07,852.23 198.42,847.27 199.82,844.83 C201.26,842.36 205.61,837.48 208.51,835.06 C214.40,830.23 227.74,823.08 242.69,816.32 C257.77,809.50 276.57,801.00 280.29,799.32 C277.63,799.96 271.22,801.52 267.46,802.43 C259.23,804.45 253.32,806.24 250.34,808.33 C248.91,809.37 246.84,811.81 246.30,813.12 C245.35,815.62 246.05,820.81 247.21,823.39 C248.48,826.12 252.85,832.19 256.00,835.63 C259.66,839.55 266.59,844.74 270.64,846.54 C274.68,848.27 283.29,849.81 288.25,849.66 C291.27,849.53 298.65,848.14 302.35,846.98 C309.76,844.61 323.86,837.01 334.41,829.89 C344.14,823.04 353.32,815.89 358.14,811.39 C359.59,810.05 361.35,807.78 362.58,805.59 C363.57,803.76 364.63,800.20 364.68,798.57 C364.68,796.95 363.75,794.02 362.82,792.61 C361.89,791.29 359.32,789.04 357.68,788.11 C355.10,786.70 338.34,782.47 331.87,781.04 C317.19,778.13 269.78,770.28 261.65,768.34 C252.78,766.20 237.76,760.81 231.61,757.56 C225.49,754.30 215.35,746.15 211.79,741.29 C209.83,738.55 206.94,732.67 206.03,729.51 C205.14,726.34 204.43,719.58 204.60,715.99 C204.79,712.39 206.25,704.74 207.50,700.73 C209.97,692.94 217.49,677.30 222.11,670.35 C226.75,663.41 237.93,650.87 244.14,645.54 C250.00,640.55 262.95,631.72 270.21,627.77 C277.49,623.83 292.40,617.42 302.26,613.99 C310.69,611.23 327.69,606.34 334.06,604.94 C341.35,603.35 355.43,601.36 360.71,601.18 C367.06,600.99 377.42,601.75 382.15,602.73 C386.85,603.75 395.06,607.00 398.45,609.19 C398.59,609.28 419.05,624.04 419.79,624.57 C419.79,624.57 378.93,616.60 378.93,616.60 C378.93,616.60 380.29,617.45 380.29,617.45 C380.29,617.45 379.27,617.96 379.27,617.96 C379.27,617.96 353.41,631.76 353.41,631.76 C353.41,631.76 350.54,636.42 350.54,636.42 C350.54,636.42 335.14,655.87 335.14,655.87 C335.14,655.87 325.77,662.38 325.77,662.38 C325.77,662.38 318.77,669.02 318.77,669.02 C318.77,669.02 305.92,677.08 305.92,677.08 C305.92,677.08 297.53,684.30 297.53,684.30 C297.53,684.30 291.83,687.52 291.83,687.52 C291.83,687.52 288.76,690.81 288.76,690.81 C288.76,690.81 287.45,693.86 287.45,693.86 C314.41,680.51 361.78,657.54 373.78,652.37 C380.89,649.46 401.72,641.66 408.00,639.84 C417.36,637.17 431.62,636.12 435.59,634.21 C437.68,633.16 440.98,630.06 441.96,627.92 C442.94,625.68 443.57,620.19 443.22,616.88 C442.77,612.98 440.63,606.11 438.35,602.49 C436.04,598.91 429.62,592.33 424.70,588.55 C420.33,585.24 408.21,578.00 401.24,574.55 C393.17,570.57 354.56,554.96 339.21,548.87 C332.09,546.08 287.30,531.59 286.60,531.35 C282.72,529.99 277.47,526.62 276.17,524.65 C274.94,522.67 275.09,518.11 276.47,515.54 C277.84,513.10 282.11,508.56 284.73,506.34 C289.38,502.47 302.06,494.31 311.88,488.88 C321.38,483.89 351.98,469.32 355.45,467.61 C360.78,464.99 369.40,460.14 372.60,457.97 C375.75,455.81 379.86,451.98 380.83,450.30 C381.75,448.63 381.40,445.78 380.14,444.59 C377.74,442.45 368.73,440.47 364.90,440.03 C357.58,439.21 332.96,439.13 313.67,439.96 C285.09,441.77 190.77,451.00 152.46,454.83 C138.33,456.24 115.80,458.48 107.40,459.31 C132.36,448.43 194.27,421.43 231.22,405.32 C245.70,399.00 270.65,388.12 281.13,383.55 C281.13,383.55 235.71,404.23 235.71,404.23 C237.25,405.49 241.06,408.61 243.33,410.47 C245.42,412.15 247.81,413.53 249.88,414.06 C254.12,415.04 264.62,413.52 268.61,412.17 C275.31,409.91 286.11,405.39 296.53,400.49 C307.91,394.82 356.21,369.01 357.24,368.47 C357.24,368.47 288.93,337.45 288.93,337.45 C288.93,337.45 291.30,318.30 291.30,318.30 C291.30,318.30 283.85,301.52 283.85,301.52 C283.85,301.52 384.10,241.85 384.10,241.85 C389.10,237.15 401.24,225.75 408.39,219.06 C422.99,205.39 433.08,194.91 434.60,190.73 C434.94,189.71 434.93,188.10 434.57,187.49 C433.75,186.29 429.60,185.77 427.43,186.12 C421.14,187.13 401.15,193.18 384.51,199.19 C368.55,205.35 330.74,220.92 311.61,228.58 C302.55,232.00 284.93,238.42 276.38,241.42 C268.33,244.02 252.60,248.89 245.19,250.96 C238.02,252.83 219.99,257.07 208.47,258.53 C202.43,259.28 191.34,259.89 186.27,259.76 C181.24,259.60 172.13,258.41 168.08,257.38 C164.15,256.35 157.08,253.41 154.54,251.80 C152.05,250.18 148.86,246.57 148.17,244.59 C147.53,242.60 148.04,238.26 149.20,235.90 C151.17,232.02 159.19,224.17 164.32,220.39 C169.49,216.60 180.83,209.69 191.36,203.92 C205.01,196.86 273.25,164.86 284.35,159.65 C271.89,165.89 234.65,184.72 226.80,189.63 C223.77,191.53 217.43,196.09 216.98,196.60 C215.49,198.37 214.28,201.76 214.84,203.32 C215.40,204.74 218.37,207.51 220.36,208.65 C222.20,209.66 226.60,211.03 228.17,211.09 C229.22,211.11 264.21,201.95 279.94,197.38 C298.34,191.70 334.62,180.13 352.49,174.24 C367.75,168.81 406.52,154.35 419.35,148.42 C431.24,142.89 446.98,133.51 452.68,128.80 C454.93,126.93 457.44,124.09 457.71,123.13 C457.92,122.19 456.38,121.25 454.67,121.21 C451.22,121.17 438.12,124.23 426.60,127.76 C409.28,133.29 389.35,139.66 386.73,140.50 C390.28,137.51 398.95,130.20 404.07,125.89 C413.64,117.83 424.74,109.88 433.37,105.34 C441.86,100.92 459.16,94.28 467.46,91.81 C474.51,89.72 491.49,85.84 502.71,83.80 C520.02,81.21 547.03,77.18 556.73,75.75 C545.70,82.41 512.22,102.58 501.59,109.33 C494.32,114.14 479.30,124.83 476.82,127.02 C471.90,131.41 466.06,139.00 464.99,142.33 C464.55,143.84 464.32,147.07 464.52,148.43 C465.04,151.24 468.40,155.01 470.55,156.16 C474.29,158.07 486.29,160.17 492.43,159.72 C500.45,159.07 520.13,153.61 531.10,149.68 C541.94,145.64 577.29,130.54 595.36,122.19 C610.28,115.24 633.94,104.22 642.67,100.16 C642.67,100.16 672.84,102.19 672.84,102.19 C672.84,102.19 574.19,142.19 574.19,142.19 C585.91,141.20 614.42,138.80 631.20,137.38 C652.09,135.54 695.45,131.14 707.91,129.25 C715.08,128.03 727.21,125.42 732.81,124.08 C734.66,123.64 737.48,122.24 739.52,120.59 C741.23,119.16 743.30,115.61 743.59,113.70 C743.93,110.72 740.40,101.49 738.99,97.83 C738.46,96.44 737.50,93.96 737.08,92.87 C740.01,93.03 747.32,93.43 751.69,93.66 C758.35,94.02 765.79,95.80 768.23,97.71 C770.39,99.49 771.96,103.76 771.91,105.97 C771.82,108.33 769.87,114.60 768.35,117.24 C766.50,120.38 759.85,126.79 755.11,129.99 C748.59,134.37 733.87,141.31 724.39,145.21 C705.08,152.61 642.36,171.60 630.77,175.11 C630.77,175.11 571.18,174.02 571.18,174.02" fill="none" stroke="rgb(0, 0, 0)" stroke-width="5.00" stroke-opacity="1.00" stroke-linejoin="round"/>
</g>
</svg>
