<?xml version="1.0" encoding="UTF-8" standalone="no"?>
<!DOCTYPE svg PUBLIC "-//W3C//DTD SVG 1.1//EN" "http://www.w3.org/Graphics/SVG/1.1/DTD/svg11.dtd">
<svg width="1080.00" height="1920.00" viewBox="0.00 0.00 1080.00 1920.00" xmlns="http://www.w3.org/2000/svg" xmlns:xlink="http://www.w3.org/1999/xlink">
<g stroke-linecap="round" id="レイヤー_2">
<path>
<animate attributeName="d" dur="7s" repeatCount="indefinite"
 values="M315.48,920.98 C310.45,920.85 299.96,920.46 297.39,920.22 C289.26,919.45 275.78,916.97 269.61,915.41 C262.61,913.64 249.91,909.37 243.71,906.33 C237.66,903.33 227.31,895.61 227.03,895.13 C227.02,895.08 271.94,925.63 272.73,926.07 C272.91,926.16 222.39,890.85 221.99,890.51 C220.66,889.36 214.64,882.63 212.81,880.08 C211.04,877.57 207.70,871.55 206.41,868.45 C204.17,862.98 201.04,846.68 201.07,842.43 C201.15,836.35 202.80,824.82 204.46,819.45 C205.47,816.22 211.26,800.41 213.53,795.65 C215.74,791.01 223.24,777.59 227.31,771.45 C232.73,763.45 238.10,756.61 242.86,751.69 C254.26,740.22 270.31,725.48 286.17,713.39 C295.58,706.45 320.49,689.32 333.47,680.99 C346.89,672.72 374.89,656.84 382.72,652.97 C396.21,646.55 439.09,627.96 443.81,626.02 C443.81,626.02 450.55,622.28 450.55,622.28 C450.65,621.92 455.78,613.58 456.11,613.00 C456.99,611.33 456.96,609.90 456.09,608.13 C455.05,606.15 451.89,602.21 449.59,600.43 C447.78,599.06 444.29,597.26 440.88,595.66 C436.82,593.80 433.20,592.77 430.37,592.42 C427.64,592.11 409.59,590.81 404.23,591.23 C397.40,591.79 326.16,601.25 312.55,602.09 C304.32,602.44 293.22,602.44 284.30,601.76 C273.52,600.90 269.62,599.86 261.16,597.11 C260.82,596.09 259.82,593.26 259.76,592.50 C259.57,589.71 262.42,584.06 264.67,580.84 C268.90,574.88 279.34,561.90 281.76,559.08 C286.25,553.90 292.04,548.19 298.08,542.62 C312.23,530.02 335.34,511.30 343.86,505.03 C350.67,500.25 368.12,488.26 376.70,482.63 C394.93,471.40 437.48,445.34 448.28,439.30 C448.68,439.08 452.47,436.00 454.10,434.68 C456.02,433.15 456.71,432.29 456.77,431.45 C455.69,432.47 453.01,435.01 452.91,435.08 C452.48,435.37 457.42,430.13 459.45,427.72 C461.38,425.41 464.67,421.45 466.95,418.55 C469.29,415.56 471.05,409.96 472.49,407.30 C473.01,406.38 473.52,405.45 474.04,404.52 C474.14,404.33 474.71,403.73 474.55,403.35 C473.44,401.08 467.70,395.94 465.95,395.35 C465.95,395.35 455.17,392.31 454.25,392.10 C450.82,391.33 433.85,391.78 426.71,393.17 C424.32,393.65 409.64,397.48 405.63,398.99 C391.46,404.28 373.46,412.16 360.30,418.38 C345.68,425.74 322.79,439.34 319.23,441.38 C317.58,442.43 291.21,472.89 279.56,486.40 C256.68,513.00 231.26,542.57 228.71,545.53 C228.71,545.53 243.38,527.17 243.38,527.17 C243.56,527.13 243.72,527.15 243.70,527.20 C243.70,527.20 243.70,527.20 243.70,527.20"
 fill="#FFF" 
 stroke="rgb(0, 0, 0)" 
 stroke-width="5.00" 
 stroke-opacity="1.00" 
 stroke-linejoin="round"/>
<path d="M314.18,481.16 C292.38,502.01 244.85,547.48 219.11,572.10 C217.04,574.08 213.17,577.78 211.36,579.51 C213.11,575.05 217.76,563.17 223.46,554.36 C227.04,548.84 250.81,518.29 261.06,505.33 C284.42,476.66 315.82,438.38 323.87,428.78 C325.85,426.37 331.13,421.88 334.52,419.83 C340.76,416.08 355.19,407.63 358.28,406.05 C369.52,400.36 387.32,394.50 388.44,393.69 C388.55,393.28 394.18,391.88 395.70,390.78 C397.98,389.11 411.76,383.25 419.16,379.55 C431.47,373.15 454.89,358.87 472.07,347.43 C480.64,341.57 489.32,335.16 493.71,331.31 C496.74,328.63 509.92,315.98 513.55,310.62 C516.17,306.72 519.13,301.79 520.05,298.90 C521.00,295.77 520.80,289.09 519.15,286.21 C518.26,284.73 515.39,282.09 513.72,281.11 C511.74,280.01 504.58,278.41 500.75,278.43 C494.06,278.53 477.16,283.08 474.26,284.05 C471.05,285.12 453.37,292.71 445.98,295.94 C437.00,300.13 429.37,304.62 423.19,309.49" fill="#FFF" stroke="rgb(0, 0, 0)" stroke-width="5.00" stroke-opacity="1.00" stroke-linejoin="round"/>
<path d="M285.70,918.03 C286.38,917.99 304.86,915.55 315.27,915.02 C324.57,914.56 330.73,915.83 341.67,914.29 C358.38,911.92 412.94,903.91 419.87,902.16 C424.13,901.06 429.95,898.68 431.51,897.40 C433.01,896.12 433.31,893.37 432.11,891.91 C429.80,889.24 419.27,884.66 414.41,883.02 C405.25,879.95 369.38,871.49 348.45,867.25 C323.49,862.80 275.34,854.65 255.82,851.89 C247.44,850.86 231.31,849.32 227.79,849.18 C217.51,848.76 213.39,850.75 213.37,851.07 C213.29,852.81 215.50,854.80 216.39,855.44 C219.03,857.31 227.01,861.35 235.42,865.07 C254.88,873.16 351.80,907.44 385.91,919.53 C388.98,920.62 394.26,922.53 401.82,924.98 C406.95,926.72 409.60,928.28 412.81,930.48 C413.87,931.23 420.35,935.46 422.07,937.99 C423.00,939.45 423.57,941.23 423.54,942.69 C423.44,944.98 420.40,950.49 418.38,952.57 C414.54,956.49 404.51,964.44 395.24,970.77 C382.56,979.19 359.17,995.16 344.54,1006.43 C338.15,1011.58 327.11,1021.48 324.14,1025.43 C323.00,1026.98 321.32,1030.08 321.15,1031.23 C321.00,1032.52 322.22,1035.24 323.36,1036.46 C324.78,1037.90 331.25,1041.13 334.96,1041.94 C341.20,1043.24 356.01,1042.82 365.28,1041.87 C368.31,1041.54 372.06,1041.13 372.77,1041.06" fill="#FFF" stroke="rgb(0, 0, 0)" stroke-width="5.00" stroke-opacity="1.00" stroke-linejoin="round"/>
<path d="M356.81,1044.95 C358.71,1044.58 362.34,1042.29 365.55,1041.88 C379.20,1040.39 403.50,1037.85 421.18,1037.75 C437.78,1037.78 471.37,1037.93 488.36,1038.04 C503.79,1038.30 529.63,1038.93 548.01,1040.39 C603.18,1045.60 613.08,1047.47 615.28,1047.90 C615.42,1049.18 615.10,1050.08 613.89,1051.10 C610.27,1054.11 598.58,1060.28 589.11,1064.74 C572.46,1072.32 507.28,1096.51 499.89,1099.82 C493.97,1102.49 484.51,1107.79 478.33,1111.53 C480.90,1110.87 499.20,1105.03 505.03,1104.01 C508.19,1103.47 515.16,1102.69 517.91,1102.40 C517.91,1102.40 526.55,1103.64 526.55,1103.64 C526.85,1105.42 526.88,1106.51 526.67,1106.90 C526.36,1107.48 524.82,1106.88 524.80,1107.54 C524.94,1107.90 565.89,1104.87 578.72,1103.02 C594.56,1100.50 627.23,1095.15 644.07,1092.33 C674.07,1086.69 718.17,1078.60 721.64,1077.65 C719.52,1075.88 714.16,1073.54 708.99,1072.10 C701.45,1070.06 688.12,1068.30 679.20,1067.76 C667.66,1067.27 654.00,1066.39 652.11,1064.75 C651.16,1063.84 650.89,1061.82 651.50,1060.33 C652.85,1057.26 656.74,1052.35 659.16,1049.88 C663.78,1045.20 673.77,1037.30 682.86,1030.96 C688.11,1027.40 697.90,1021.95 706.58,1017.97 C713.77,1014.79 728.96,1008.24 736.39,1005.28 C744.58,1002.14 755.15,998.98 765.08,996.46 C772.48,994.73 784.94,992.14 789.23,991.28 C792.36,990.61 800.54,986.29 801.56,985.92 C802.19,985.70 812.52,984.23 813.85,984.08 C816.56,983.78 823.49,984.21 826.86,984.84 C828.29,985.11 854.31,990.46 857.43,990.98 C861.18,991.61 869.32,992.50 873.32,992.59 C878.88,992.68 895.11,990.18 902.18,988.08 C908.25,986.24 920.60,981.52 927.71,978.25 C934.44,975.05 948.95,967.06 952.79,964.68 C961.38,959.25 970.11,953.21 976.90,947.97 C982.33,943.70 992.94,933.86 997.30,928.89 C1002.24,923.20 1010.24,910.90 1012.79,904.61 C1014.15,901.20 1016.14,894.45 1016.65,891.11 C1017.15,887.67 1017.35,881.06 1016.91,877.79 C1016.44,874.45 1014.68,868.01 1013.23,864.87 C1011.77,861.76 1007.95,855.50 1005.55,852.52 C1000.47,846.27 988.78,836.13 983.13,832.20 C978.21,828.80 965.45,821.58 958.81,818.64 C951.27,815.33 938.03,811.10 929.85,809.42 C922.19,807.87 905.69,806.49 898.35,806.59 C892.74,806.69 874.57,808.44 868.34,809.16 C862.08,809.90 844.45,814.57 837.26,816.55 C821.47,821.16 804.56,826.09 803.44,826.42" fill="#FFF" stroke="rgb(0, 0, 0)" stroke-width="5.00" stroke-opacity="1.00" stroke-linejoin="round"/>
<path d="M801.42,828.31 C801.42,828.31 804.22,825.09 804.22,825.09" fill="#FFF" stroke="rgb(0, 0, 0)" stroke-width="5.00" stroke-opacity="1.00" stroke-linejoin="round"/>
<path d="M821.11,672.62 C819.80,673.16 811.25,676.67 805.12,680.36 C797.53,685.09 785.41,693.72 776.22,700.74 C767.63,707.45 760.23,713.94 753.08,720.92 C745.20,728.76 734.79,740.16 729.41,746.91 C726.98,750.05 722.01,756.86 719.61,760.38 C717.35,763.84 713.27,771.30 711.72,775.57 C710.02,780.29 708.15,786.72 708.58,790.57 C709.02,794.07 709.78,797.53 710.73,799.18 C712.62,802.39 719.43,807.03 723.58,808.60 C729.99,811.02 747.56,812.42 756.10,811.91 C763.75,811.32 780.16,809.02 788.06,807.29 C799.70,804.62 811.01,802.92 822.10,802.28 C822.28,802.26 822.46,802.25 822.64,802.24 C822.92,803.29 822.93,804.79 822.49,805.43 C822.31,805.68 808.09,819.51 806.21,821.51 C805.09,822.73 803.94,824.16 803.17,825.21 C802.96,825.51 802.43,826.23 802.12,826.66" fill="#FFF" stroke="rgb(0, 0, 0)" stroke-width="5.00" stroke-opacity="1.00" stroke-linejoin="round"/>
<path d="M818.04,672.34 C822.54,672.47 829.77,670.92 833.13,669.89 C839.88,667.81 863.58,657.01 874.09,651.88 C883.46,647.06 896.15,639.99 902.45,635.86 C907.62,632.33 917.96,624.24 921.61,621.09 C925.99,617.08 933.63,609.05 937.64,604.00 C941.56,598.80 947.34,588.64 949.20,583.00 C951.07,576.87 952.22,566.39 952.33,559.21 C952.33,553.55 949.77,543.19 947.84,538.98 C946.41,536.07 944.18,532.49 942.17,529.88 C938.57,525.47 930.09,518.74 924.44,515.77 C919.25,513.16 907.00,509.31 903.45,508.63 C898.95,507.83 880.85,506.67 878.24,506.61 C872.84,506.57 860.64,508.14 855.27,508.93 C847.01,510.25 835.27,512.61 829.11,514.23 C824.30,515.58 811.33,519.86 805.60,521.94 C799.96,524.13 788.83,528.84 783.38,531.33 C776.60,534.60 766.93,539.81 761.36,543.02 C756.38,546.03 745.57,552.77 740.27,556.53 C734.68,560.61 727.00,566.83 722.03,571.97 C720.51,573.60 719.16,575.27 718.70,576.21 C718.70,576.21 714.99,579.42 714.99,579.42 C714.33,580.01 713.20,581.02 712.61,581.49 C711.91,582.00 710.74,581.20 710.19,580.60 C709.35,580.34 705.80,583.38 705.04,583.89 C702.80,585.40 697.48,586.37 694.51,586.00 C691.47,585.61 686.57,583.42 683.41,581.43 C680.17,579.32 677.66,576.52 676.09,573.71 C674.42,570.64 672.97,566.29 672.48,563.47 C672.05,560.93 672.25,555.31 672.92,552.50 C673.65,549.48 676.04,544.61 677.57,542.43 C680.10,538.85 691.48,529.83 694.94,527.72 C698.51,525.61 710.82,519.50 716.53,516.73 C722.62,513.90 734.17,509.36 739.81,507.53 C745.24,505.88 756.95,503.07 763.08,501.84 C769.52,500.72 781.23,498.80 786.49,497.99 C790.79,497.50 792.52,497.43 797.52,495.61 C797.84,495.50 798.15,495.39 798.47,495.28 C799.39,494.96 800.73,494.50 801.15,494.36 C808.53,491.87 817.08,488.65 823.11,486.72 C828.76,484.83 841.28,480.63 848.15,478.31 C854.73,476.14 866.36,472.34 871.41,470.71 C878.88,468.20 883.80,466.33 893.66,461.72 C898.46,459.44 909.39,454.22 915.51,451.28 C921.73,448.12 933.77,441.55 939.54,438.12 C945.24,434.58 956.05,427.40 961.25,423.86 C965.39,420.90 976.25,412.83 979.55,409.66 C984.72,404.50 992.84,395.49 994.85,393.03 C998.65,388.18 1006.03,373.81 1006.70,371.97 C1007.37,370.11 1008.17,361.93 1008.15,360.30 C1008.12,357.20 1006.34,351.86 1004.54,349.16 C1003.10,347.01 998.90,343.09 996.15,341.16 C992.58,338.70 981.02,333.95 974.27,332.04 C969.01,330.69 956.87,328.96 950.77,328.47 C944.97,328.18 933.03,328.24 927.37,328.74 C921.51,329.38 905.23,332.32 903.47,333.13 C903.19,333.26 827.43,372.46 827.51,372.42 C857.03,357.00 901.92,333.55 901.94,333.54 C902.14,333.41 884.37,338.97 880.00,340.72 C875.75,342.52 863.36,348.32 857.64,351.17 C851.01,354.68 841.79,360.35 836.35,364.37 C834.67,365.65 832.81,367.50 832.09,368.58 C831.20,369.94 830.70,371.86 830.63,373.25 C830.57,374.63 832.29,376.71 834.05,377.78 C839.32,380.93 844.82,381.69 845.26,381.74" fill="#FFF" stroke="rgb(0, 0, 0)" stroke-width="5.00" stroke-opacity="1.00" stroke-linejoin="round"/>
<path d="M763.04,371.02 C765.90,367.73 771.65,363.04 774.58,360.77 C775.12,360.31 777.49,357.97 779.44,356.38 C779.84,356.05 780.24,355.70 780.76,355.24 C781.19,354.84 782.01,354.10 782.40,353.75" fill="#FFF" stroke="rgb(0, 0, 0)" stroke-width="5.00" stroke-opacity="1.00" stroke-linejoin="round"/>
<path d="M298.70,266.13 C298.70,266.13 296.46,266.52 296.46,266.52" fill="#FFF" stroke="rgb(0, 0, 0)" stroke-width="5.00" stroke-opacity="1.00" stroke-linejoin="round"/>
<path d="M232.54,352.55 C232.54,352.55 231.53,355.84 231.53,355.84" fill="#FFF" stroke="rgb(0, 0, 0)" stroke-width="5.00" stroke-opacity="1.00" stroke-linejoin="round"/>
<path d="M239.62,366.07 C241.18,367.69 242.85,368.81 245.87,370.46 C250.37,372.58 260.64,374.60 264.08,374.96 C268.54,375.42 278.26,375.11 284.58,374.52 C295.11,373.35 308.97,370.27 321.37,366.46 C332.22,362.91 349.30,355.70 358.58,350.89 C363.89,348.02 390.86,331.76 405.19,322.68 C409.22,320.03 415.90,315.59 418.55,313.80" fill="#FFF" stroke="rgb(0, 0, 0)" stroke-width="5.00" stroke-opacity="1.00" stroke-linejoin="round"/>
<path d="M445.89,295.90" fill="#FFF" stroke="rgb(0, 0, 0)" stroke-width="5.00" stroke-opacity="1.00" stroke-linejoin="round"/>
<path d="M762.51,371.55 C765.86,369.13 770.00,364.80 770.91,364.01 C774.72,360.78 777.94,356.65 780.01,354.97 C784.96,351.06 793.24,342.71 795.84,339.14 C796.28,338.57 806.78,324.28 808.94,320.64 C811.97,315.34 816.44,304.87 817.53,300.54 C818.04,298.49 818.75,289.96 818.76,288.18 C818.78,284.82 817.74,279.73 816.57,277.24 C815.45,274.90 811.13,270.50 808.78,269.35 C806.94,268.47 801.03,266.57 797.77,266.09 C794.43,265.65 779.47,267.50 776.02,268.15 C771.07,269.17 759.28,272.51 753.37,274.40 C747.23,276.52 735.12,280.80 729.13,282.95 C723.46,285.06 711.73,289.54 708.28,291.05 C705.74,292.21 699.86,295.15 697.17,296.54 C694.99,297.71 694.05,297.61 692.04,296.56 C686.50,293.70 679.67,290.25 679.58,290.17 C679.12,289.77 678.66,289.89 676.28,291.02 C614.45,319.55 612.00,320.55 612.09,320.50 C642.07,306.14 677.35,289.27 677.49,289.16 C677.61,289.05 669.21,284.86 666.33,283.06 C663.78,281.35 657.77,277.27 656.46,276.14 C654.59,274.52 652.04,270.40 652.28,268.12 C652.52,266.09 655.89,261.94 658.78,259.01 C661.85,255.98 669.64,249.75 675.78,245.82 C680.34,243.05 694.16,234.86 694.14,234.91 C694.09,235.08 652.76,308.72 652.82,308.63 C669.77,279.07 690.45,243.04 694.17,236.57 C695.66,233.91 697.43,233.05 697.79,232.84 C703.56,229.71 715.38,223.50 721.41,220.54 C727.25,217.80 738.05,212.78 743.02,210.50 C748.23,208.19 758.81,203.65 764.18,201.41 C769.06,199.42 779.85,195.02 785.75,192.61 C792.00,190.13 808.77,183.56 809.36,183.30 C813.69,181.27 827.22,173.97 831.69,170.97 C837.88,167.01 849.77,158.96 855.47,154.89 C866.91,146.73 868.31,145.68 869.40,144.86" fill="#FFF" stroke="rgb(0, 0, 0)" stroke-width="5.00" stroke-opacity="1.00" stroke-linejoin="round"/>
<path d="M851.75,156.51 C856.59,154.43 867.36,146.47 869.91,143.61 C870.85,142.55 872.08,140.72 872.93,139.21 C873.52,138.09 873.70,136.09 873.26,134.99 C873.02,134.45 870.62,132.05 870.07,131.67 C867.84,130.17 862.68,129.58 859.29,129.36 C854.62,129.14 845.80,130.11 840.17,131.31 C828.51,133.91 782.15,147.58 764.68,152.97 C740.69,160.61 679.53,179.41 662.57,183.96 C649.07,187.32 623.77,191.81 616.46,192.31 C606.60,192.91 596.26,190.41 595.55,190.09 C594.45,189.55 595.05,188.49 597.00,187.41 C609.52,180.37 634.82,168.11 635.96,167.57 C641.58,165.29 652.72,160.72 658.24,158.44 C663.44,156.16 672.07,152.35 678.22,148.14 C695.12,136.30 735.32,110.17 748.79,102.00 C768.48,90.53 772.95,87.42 786.73,76.80 C794.24,71.15 806.76,62.08 809.44,60.16 C809.50,60.11 806.52,61.44 806.47,61.46 C805.96,61.69 802.49,63.26 798.11,65.42 C783.45,72.85 753.34,91.00 740.65,98.99 C721.62,111.28 674.98,141.81 671.68,144.12 C671.22,144.45 645.36,157.56 637.31,161.75 C625.91,168.12 604.67,180.34 596.51,185.41" fill="#FFF" stroke="rgb(0, 0, 0)" stroke-width="5.00" stroke-opacity="1.00" stroke-linejoin="round"/>
<path d="M611.73,135.84 C609.90,136.89 609.05,138.41 609.67,139.97 C609.87,140.46 618.26,147.41 618.55,147.63 C620.31,149.05 621.40,150.84 621.38,152.35 C621.32,153.60 617.90,157.55 614.96,159.53 C609.21,163.33 595.83,168.74 586.97,171.07 C576.51,173.71 569.76,175.07 567.52,175.38" fill="#FFF" stroke="rgb(0, 0, 0)" stroke-width="5.00" stroke-opacity="1.00" stroke-linejoin="round"/>
<path d="M405.78,166.25 C405.78,166.25 446.56,158.65 446.56,158.65 C444.19,160.19 441.02,160.83 438.12,161.08 C435.46,161.31 420.71,167.34 413.58,171.11 C403.80,176.45 399.25,179.32 398.11,180.12" fill="#FFF" stroke="rgb(0, 0, 0)" stroke-width="5.00" stroke-opacity="1.00" stroke-linejoin="round"/>
<path d="M380.69,192.94 C380.69,192.94 378.36,194.64 378.36,194.64" fill="#FFF" stroke="rgb(0, 0, 0)" stroke-width="5.00" stroke-opacity="1.00" stroke-linejoin="round"/>
<path d="M370.70,220.76 C370.70,220.76 378.70,232.02 378.70,232.02" fill="#FFF" stroke="rgb(0, 0, 0)" stroke-width="5.00" stroke-opacity="1.00" stroke-linejoin="round"/>
<path d="M385.51,236.07 C390.50,237.64 396.09,238.74 398.18,238.23 C398.65,238.11 399.75,237.75 401.48,237.14 C388.38,246.39 379.58,248.54 379.54,248.55" fill="#FFF" stroke="rgb(0, 0, 0)" stroke-width="5.00" stroke-opacity="1.00" stroke-linejoin="round"/>
<path d="M356.33,249.06 C356.33,249.06 349.82,247.85 349.82,247.85" fill="#FFF" stroke="rgb(0, 0, 0)" stroke-width="5.00" stroke-opacity="1.00" stroke-linejoin="round"/>
<path d="M520.84,137.86 C520.84,137.86 517.86,139.21 517.86,139.21" fill="#FFF" stroke="rgb(0, 0, 0)" stroke-width="5.00" stroke-opacity="1.00" stroke-linejoin="round"/>
<path d="M521.40,137.33 C526.27,134.57 536.32,128.87 541.51,125.92 C546.14,123.40 558.08,117.26 563.30,115.02 C568.10,112.99 572.76,111.36 575.14,111.94 C576.72,112.36 578.25,114.68 578.95,117.01 C579.63,119.29 579.21,136.59 578.96,142.56 C578.53,149.52 576.28,161.25 574.27,165.84 C573.31,168.07 569.26,173.85 568.02,174.54" fill="#FFF" stroke="rgb(0, 0, 0)" stroke-width="5.00" stroke-opacity="1.00" stroke-linejoin="round"/>
<path d="M379.16,651.95 C358.74,675.12 315.94,723.70 293.55,749.11 C292.69,750.08 291.03,751.97 290.23,752.87 C284.77,765.70 273.09,793.89 266.85,809.27 C260.90,824.87 250.74,852.34 246.54,864.20 C275.44,867.36 342.39,874.66 380.43,878.81 C387.00,879.53 398.85,880.82 404.11,881.40" fill="#FFF" stroke="rgb(0, 0, 0)" stroke-width="70.39" stroke-opacity="1.00" stroke-linejoin="round"/>
<path d="M248.05,861.13 C248.05,861.13 245.09,861.66 245.09,861.66 C243.97,860.72 243.56,859.52 243.63,856.85 C243.82,851.01 246.74,839.23 249.21,831.90 C251.67,825.07 257.00,810.50 259.87,802.76 C264.11,791.17 265.92,785.92 269.78,779.38 C273.59,773.06 284.28,756.09 286.74,752.54 C290.30,747.43 301.05,734.90 304.81,731.94 C307.61,729.78 315.04,726.10 318.13,724.87 C324.06,722.56 338.08,720.15 346.53,719.29 C348.17,719.12 351.16,718.89 352.14,718.81" fill="#FFF" stroke="rgb(0, 0, 0)" stroke-width="70.39" stroke-opacity="1.00" stroke-linejoin="round"/>
<path d="M247.20,863.99 C240.94,863.33 232.58,860.25 230.74,858.48 C228.22,856.01 225.14,850.31 224.75,847.68 C224.36,844.58 224.55,839.50 225.28,835.98 C226.41,830.73 231.27,818.68 234.60,812.69 C239.45,804.29 244.51,797.06 251.51,788.08 C257.72,780.25 262.83,775.40 270.23,768.88 C281.58,759.00 306.70,742.19 319.52,733.61 C326.58,729.07 339.77,721.08 346.45,717.10 C355.03,712.17 363.74,708.01 369.49,705.27 C372.03,704.04 377.60,701.52 378.72,701.02" fill="#FFF" stroke="rgb(0, 0, 0)" stroke-width="70.39" stroke-opacity="1.00" stroke-linejoin="round"/>
<path d="M256.95,798.55 C261.35,790.98 269.95,779.22 272.49,775.65 C275.99,770.60 284.25,758.36 288.96,752.42 C291.87,748.77 305.43,733.17 308.90,730.16 C310.79,728.53 323.99,718.00 329.65,714.51 C336.55,710.34 353.18,701.58 356.18,699.80 C362.70,695.89 379.97,682.93 382.29,681.02 C385.54,678.34 401.33,668.56 408.69,664.06 C419.53,657.43 423.80,655.01 431.66,651.70 C446.84,645.61 475.58,633.38 489.22,627.48 C497.31,624.03 514.19,614.61 515.85,613.61 C516.74,613.08 518.82,611.74 519.46,611.33" fill="#FFF" stroke="rgb(0, 0, 0)" stroke-width="70.39" stroke-opacity="1.00" stroke-linejoin="round"/>
<path d="M290.20,585.28 C293.43,584.28 299.74,582.31 302.82,581.34 C314.34,577.79 324.67,575.36 332.87,574.75 C337.52,574.43 404.56,575.59 422.76,576.64 C430.04,577.20 438.63,578.70 448.38,580.79 C455.97,582.47 469.60,586.40 475.80,589.12 C478.88,590.49 486.10,594.61 488.80,596.67 C491.44,598.71 497.03,604.47 499.28,607.60 C503.36,613.31 508.62,625.43 510.01,631.90 C511.39,638.53 511.88,651.78 510.65,658.27 C509.96,661.78 508.00,668.15 506.42,672.03 C503.65,678.76 496.08,691.64 493.62,695.41" fill="#FFF" stroke="rgb(0, 0, 0)" stroke-width="70.39" stroke-opacity="1.00" stroke-linejoin="round"/>
<path d="M299.09,576.18 C301.89,573.49 313.61,560.19 318.92,554.13 C325.05,546.91 328.71,542.20 335.10,536.41 C347.44,525.49 377.34,499.44 383.55,494.80 C394.23,487.09 415.30,472.14 430.70,462.34 C456.32,446.23 508.94,413.28 535.95,396.44 C546.86,389.29 565.85,377.32 569.11,375.54 C570.48,374.82 572.70,373.64 573.57,373.18" fill="#FFF" stroke="rgb(0, 0, 0)" stroke-width="70.39" stroke-opacity="1.00" stroke-linejoin="round"/>
<path d="M613.70,367.57 C609.00,368.60 604.78,369.69 601.05,371.15 C596.81,372.84 590.52,376.05 587.44,378.12 C582.25,381.66 572.89,389.96 565.09,397.59 C560.09,402.67 532.48,431.81 521.15,443.49 C509.16,455.55 487.24,477.06 481.65,481.93 C489.82,469.35 507.14,442.76 516.30,428.76 C523.38,418.26 530.51,409.17 534.19,404.50 C541.26,395.74 561.53,373.87 569.17,365.77 C566.85,366.89 560.51,374.76 553.32,384.17 C542.66,398.33 522.57,425.27 513.13,438.06 C505.46,448.38 487.51,471.05 477.61,483.24 C466.84,496.15 444.95,522.16 433.84,535.26 C420.48,550.53 412.24,556.69 411.13,557.54 C413.60,550.76 418.76,539.69 423.57,533.29 C434.02,519.64 444.15,508.60 460.37,491.89 C456.16,493.04 445.74,499.66 437.66,505.71 C425.20,515.35 399.38,536.33 393.42,541.76 C385.49,549.26 376.41,557.05 374.17,558.60 C378.00,555.49 404.20,526.94 415.10,515.08 C423.52,506.28 448.53,483.30 459.93,473.79 C472.41,463.65 497.07,443.71 509.26,433.90 C520.30,425.13 553.34,402.29 557.82,399.54 C562.46,396.69 567.48,394.36 569.57,393.41 C572.75,391.90 574.43,391.54 578.33,391.24 C578.48,394.18 577.94,396.95 576.37,401.69 C571.11,416.27 560.25,443.69 554.62,457.41 C542.21,486.87 518.46,544.21 507.13,572.10 C494.61,603.44 479.41,641.70 478.32,646.22 C478.32,646.22 480.33,646.86 480.33,646.86 C483.65,643.27 485.62,640.82 487.23,638.00 C492.59,628.49 526.22,550.25 538.60,523.26 C546.27,507.26 557.57,486.16 564.72,473.65 C572.61,460.39 590.24,431.47 596.72,421.88 C607.02,407.51 614.15,398.32 614.76,397.54 C605.51,424.71 585.14,482.65 574.03,513.43 C567.18,532.36 561.84,550.01 557.83,563.44 C548.14,596.98 531.38,658.80 522.98,689.69 C518.75,704.17 509.38,733.34 504.20,745.40 C502.09,750.28 495.78,762.22 494.20,765.19 C498.12,751.08 506.27,721.71 510.51,706.46 C514.46,692.32 534.22,634.26 539.83,618.21 C544.92,604.87 556.04,580.75 564.61,564.31 C569.98,554.40 575.59,544.87 575.74,544.20 C572.69,547.34 566.21,558.75 562.31,566.88 C556.22,580.27 545.55,604.23 538.91,620.65 C526.68,651.40 498.00,722.66 489.64,741.29 C486.83,747.27 480.34,760.64 476.91,767.22 C470.49,779.32 457.93,797.64 455.71,800.35 C455.26,797.56 455.31,794.68 456.06,791.20 C459.37,777.10 465.75,751.34 471.03,734.01 C473.32,727.09 478.55,711.87 480.58,706.68 C486.77,691.20 494.57,677.57 494.94,675.87 C493.28,675.74 488.89,678.09 487.22,679.32 C484.74,681.19 473.47,694.13 468.24,700.21 C461.53,707.69 452.69,716.75 446.84,722.46 C440.59,728.37 431.44,735.15 425.93,736.96 C421.64,738.23 418.50,738.37 414.94,737.42 C404.54,734.48 393.87,732.31 387.48,732.72 C382.37,733.09 376.04,734.11 372.04,735.27 C365.48,737.22 351.35,742.98 345.34,746.79 C337.26,752.00 330.63,756.97 321.62,764.37 C314.63,770.23 306.39,779.31 299.87,787.83 C295.08,794.19 290.81,801.99 286.17,811.15 C282.87,817.89 274.48,832.87 273.15,835.72 C270.44,841.59 268.51,850.99 267.27,861.55 C266.89,865.36 266.19,873.23 266.66,876.02 C266.99,877.76 268.36,879.87 269.77,880.94 C271.97,882.51 276.28,883.59 280.44,884.06 C283.25,884.37 287.43,886.08 289.80,886.38 C295.47,887.06 308.95,886.23 315.31,887.47 C319.96,888.35 324.12,888.48 328.10,888.05 C338.13,886.86 347.04,886.43 357.46,886.68 C366.82,886.98 378.08,886.17 385.49,885.58 C394.60,884.98 410.77,886.41 415.63,888.23 C416.60,888.60 419.86,890.23 421.29,890.89 C423.19,891.87 424.89,893.41 426.18,895.35 C432.67,905.73 436.96,913.14 437.61,917.10 C438.03,919.82 438.83,924.97 438.55,927.58 C438.29,929.97 436.65,938.36 436.38,939.38 C436.05,940.65 431.87,949.05 430.93,950.45 C430.23,951.49 417.45,966.20 413.17,969.87 C399.27,981.71 372.63,998.62 367.71,1001.38 C362.84,1004.10 345.79,1011.81 342.55,1013.51 C335.97,1017.01 334.79,1020.41 334.72,1021.03" fill="#FFF" stroke="rgb(0, 0, 0)" stroke-width="70.39" stroke-opacity="1.00" stroke-linejoin="round"/>
<path d="M333.50,1044.96 C362.82,1038.70 425.58,1025.29 459.02,1018.15 C461.61,1017.60 465.35,1016.80 466.51,1016.55 C475.23,1014.60 485.51,1012.82 494.09,1011.97 C501.56,1011.25 516.17,1011.11 523.74,1012.08 C527.66,1012.59 549.00,1016.69 552.75,1018.32 C554.98,1019.30 571.65,1025.74 577.73,1028.28 C597.48,1034.84 603.89,1038.24 605.79,1039.66" fill="#FFF" stroke="rgb(0, 0, 0)" stroke-width="70.39" stroke-opacity="1.00" stroke-linejoin="round"/>
<path d="M625.45,1047.39 C626.77,1047.66 627.60,1047.82 627.94,1047.87 C629.27,1048.04 634.11,1047.08 636.17,1046.41 C640.00,1045.13 657.24,1034.65 664.65,1030.01 C674.91,1023.59 680.21,1020.64 688.10,1016.77 C702.35,1010.03 725.61,999.04 728.38,997.84 C758.05,989.28 820.26,971.32 852.80,961.93 C854.05,961.56 856.46,960.87 857.62,960.53" fill="#FFF" stroke="rgb(0, 0, 0)" stroke-width="70.39" stroke-opacity="1.00" stroke-linejoin="round"/>
<path d="M905.33,994.56 C925.02,971.08 966.31,921.84 987.90,896.08 C988.73,895.09 990.33,893.18 991.10,892.26 C992.43,886.85 993.43,881.83 993.76,877.59 C993.95,874.98 994.19,865.75 993.85,863.05 C993.64,861.50 991.46,854.97 990.20,852.64 C988.91,850.32 985.22,846.22 983.96,845.37 C981.96,844.03 968.16,837.60 959.90,834.18 C951.63,830.85 941.23,827.51 933.42,826.37 C926.61,825.41 912.91,825.45 903.82,826.53 C898.90,827.17 882.14,829.99 877.07,831.32 C865.44,834.39 837.12,845.21 823.47,850.83 C791.83,864.35 745.94,884.09 731.68,890.31 C725.13,893.21 711.98,898.99 705.38,901.87 C701.67,903.45 696.81,905.54 695.66,906.03" fill="#FFF" stroke="rgb(0, 0, 0)" stroke-width="70.39" stroke-opacity="1.00" stroke-linejoin="round"/>
<path d="M822.95,867.06 C822.99,865.20 822.14,861.16 820.83,857.20 C819.53,853.36 816.85,848.38 813.97,844.92 C811.75,842.28 806.73,835.92 805.16,834.55 C803.48,833.12 796.79,829.45 795.60,828.93 C793.94,828.21 786.68,826.83 783.52,826.70 C778.81,826.54 763.76,829.10 756.70,830.48 C734.57,835.33 693.38,848.17 677.53,851.70 C669.35,853.50 666.32,853.26 665.43,853.03 C664.62,849.10 664.96,843.49 665.16,840.16 C665.97,831.22 667.28,823.05 669.88,813.00 C671.99,805.47 677.08,787.95 679.20,782.51 C681.40,776.89 686.51,767.11 690.73,760.83 C695.56,753.58 702.08,745.44 709.67,736.59 C714.73,730.79 727.17,716.46 727.78,715.85 C730.00,713.63 743.62,701.06 749.24,695.89 C756.05,689.54 765.78,678.61 769.15,675.40 C781.32,664.00 794.14,654.50 814.69,640.72 C822.18,635.44 829.33,631.66 840.39,626.69 C851.10,621.90 859.70,617.55 864.30,615.99 C870.72,613.84 879.91,611.50 887.65,610.59 C893.27,610.03 907.88,608.52 911.16,606.62 C914.19,604.80 917.80,600.02 918.79,597.61 C920.58,593.11 923.09,573.19 923.34,569.68 C923.58,566.19 922.76,547.41 921.75,542.09 C921.12,538.84 919.04,531.56 918.04,529.80 C916.77,527.61 913.13,523.13 911.00,521.17 C908.53,518.94 903.97,516.15 900.99,514.96 C898.38,513.94 891.75,512.52 888.55,512.22 C881.27,511.57 866.75,513.17 860.17,514.50 C853.79,515.86 836.91,519.99 833.06,521.16 C828.66,522.51 812.11,528.81 804.68,531.97 C787.13,539.99 768.35,550.77 748.84,563.54 C737.99,570.85 711.82,592.18 705.01,598.50 C694.75,608.24 674.52,631.08 663.82,643.85 C653.04,657.01 634.86,679.38 627.45,688.59 C626.79,689.42 626.12,690.24 625.45,691.07" fill="#FFF" stroke="rgb(0, 0, 0)" stroke-width="70.39" stroke-opacity="1.00" stroke-linejoin="round"/>
<path d="M706.57,634.73 C702.86,635.09 698.53,635.02 694.94,634.46 C678.18,631.51 658.62,628.73 654.81,627.53 C650.71,626.20 645.69,623.88 644.09,621.60 C642.49,619.25 641.43,614.71 641.19,612.17 C640.65,606.08 642.71,588.34 644.09,583.62 C645.62,578.45 652.55,566.09 656.57,560.64 C659.91,556.13 668.49,546.01 673.72,540.36 C678.39,535.50 688.88,525.88 694.46,521.53 C700.15,517.17 713.51,508.18 719.05,504.76 C726.40,500.36 735.13,496.27 744.82,492.72 C759.95,487.48 793.18,476.28 800.84,474.62 C804.37,473.78 829.80,466.47 830.94,466.10 C833.88,465.14 873.10,456.26 886.71,450.89 C893.52,448.18 908.78,439.71 912.23,437.55 C922.85,430.88 949.24,409.00 957.30,403.56 C960.49,401.39 965.27,397.52 968.18,394.94 C972.45,391.04 975.79,387.33 977.08,383.97 C978.17,381.05 979.65,373.99 979.67,371.01 C979.65,369.38 979.19,366.32 978.66,365.14 C977.71,363.07 964.17,344.87 964.16,344.86 C962.23,343.19 947.01,338.33 941.81,337.65 C938.79,337.28 932.02,337.61 927.62,338.56 C923.43,339.49 908.69,344.35 904.27,347.19 C897.97,351.45 889.95,356.81 881.24,361.96 C880.23,362.56 879.23,363.16 878.22,363.76" fill="#FFF" stroke="rgb(0, 0, 0)" stroke-width="70.39" stroke-opacity="1.00" stroke-linejoin="round"/>
<path d="M757.29,467.64 C753.28,467.53 749.51,467.35 745.54,466.86 C740.75,466.25 734.97,464.28 731.17,461.96 C728.45,460.27 724.76,456.78 723.62,454.14 C722.99,452.64 722.63,449.87 722.65,448.32 C732.90,419.11 753.93,359.22 764.70,328.54 C764.96,327.79 765.22,327.03 765.49,326.28" fill="#FFF" stroke="rgb(0, 0, 0)" stroke-width="70.39" stroke-opacity="1.00" stroke-linejoin="round"/>
<path d="M805.01,298.86 C804.37,295.86 803.06,291.44 801.71,289.21 C800.09,286.59 795.25,282.18 792.34,280.42 C790.19,279.15 784.36,276.80 782.07,276.29 C779.17,275.67 772.49,275.37 768.20,275.97 C761.78,276.92 749.52,281.22 744.00,284.14 C739.88,286.34 722.65,297.10 715.29,301.80 C709.12,305.70 696.09,313.75 688.96,316.97 C680.25,320.71 671.18,323.94 663.61,325.58 C658.99,326.56 652.59,327.53 648.89,327.65 C645.23,327.76 638.12,327.25 635.04,326.63 C628.67,325.32 617.71,319.94 617.30,319.55 C616.19,318.43 615.05,316.14 614.79,314.68 C614.37,311.86 614.65,309.21 614.83,307.70 C631.88,282.16 667.61,228.62 686.30,200.62 C687.02,199.54 688.40,197.46 689.07,196.47" fill="#FFF" stroke="rgb(0, 0, 0)" stroke-width="70.39" stroke-opacity="1.00" stroke-linejoin="round"/>
<path d="M671.38,246.19 C671.38,246.19 743.60,207.27 743.60,207.27" fill="#FFF" stroke="rgb(0, 0, 0)" stroke-width="70.39" stroke-opacity="1.00" stroke-linejoin="round"/>
<path d="M672.83,245.22 C672.83,245.22 745.55,206.06 745.55,206.06" fill="#FFF" stroke="rgb(0, 0, 0)" stroke-width="70.39" stroke-opacity="1.00" stroke-linejoin="round"/>
<path d="M677.84,243.80 C677.84,243.80 750.04,203.30 750.04,203.30" fill="#FFF" stroke="rgb(0, 0, 0)" stroke-width="70.39" stroke-opacity="1.00" stroke-linejoin="round"/>
<path d="M635.69,264.26 C662.69,248.62 719.30,215.83 748.92,198.67 C750.06,198.01 752.25,196.74 753.31,196.13 C753.60,195.97 812.79,159.79 826.87,151.01 C835.74,145.39 843.39,138.72 844.23,137.26 C845.24,135.41 845.44,132.68 844.55,131.70 C843.25,130.37 841.66,129.34 840.17,128.85 C836.80,127.80 833.14,127.41 829.01,127.63 C819.02,128.22 807.16,130.36 800.11,132.21 C795.54,133.41 757.82,146.73 744.21,151.99 C730.13,157.69 698.37,170.57 686.21,174.96 C679.08,177.37 664.14,182.34 660.23,183.00 C657.75,183.40 651.24,183.95 647.92,184.17 C644.84,184.35 639.62,183.80 636.47,182.26 C634.02,181.02 629.40,175.48 627.94,172.85 C626.91,170.93 626.36,168.72 626.75,167.64 C627.09,166.78 632.14,159.22 632.92,158.17 C633.71,157.10 635.94,154.28 636.68,153.35" fill="#FFF" stroke="rgb(0, 0, 0)" stroke-width="70.39" stroke-opacity="1.00" stroke-linejoin="round"/>
<path d="M638.37,171.14 C636.58,169.80 634.74,167.62 634.51,166.22 C634.37,165.19 640.06,160.26 643.11,157.71 C659.57,143.61 674.48,132.42 684.69,125.20" fill="#FFF" stroke="rgb(0, 0, 0)" stroke-width="70.39" stroke-opacity="1.00" stroke-linejoin="round"/>
<path d="M842.74,37.02 C825.78,49.95 777.47,86.85 746.11,110.83 C709.81,138.59 655.49,180.12 637.48,193.88 C636.13,194.91 634.41,196.22 634.42,196.21 C647.60,186.12 694.91,149.89 729.06,123.75 C762.74,97.97 832.51,44.53 832.61,44.45 C832.78,44.31 827.75,47.62 825.87,49.31 C796.99,74.94 729.21,134.83 729.24,134.81 C732.48,131.71 821.35,51.57 821.69,51.21 C821.79,51.11 804.55,61.66 801.37,63.74 C792.01,70.10 770.65,84.98 758.66,93.48 C745.03,103.43 714.36,125.87 697.33,138.36 C696.44,139.03 694.51,140.45 693.48,141.22 C691.93,142.33 659.09,154.40 658.48,154.63 C646.52,159.26 616.93,173.31 609.11,177.45 C599.33,182.89 596.05,185.20 588.69,191.46 C586.91,193.03 582.79,196.68 580.44,198.76" fill="#FFF" stroke="rgb(0, 0, 0)" stroke-width="70.39" stroke-opacity="1.00" stroke-linejoin="round"/>
<path d="M693.33,159.71 C689.37,160.19 686.32,160.86 684.23,162.04 C679.61,164.71 626.58,215.22 617.98,222.64 C611.22,228.29 600.40,236.21 592.93,240.81 C585.21,245.47 572.90,251.34 568.51,252.35 C565.57,253.00 559.54,252.64 556.84,251.41 C554.17,250.14 549.50,245.46 548.26,242.46 C547.41,240.28 547.61,235.17 548.78,231.58 C549.18,230.39 554.59,215.94 555.35,213.81" fill="#FFF" stroke="rgb(0, 0, 0)" stroke-width="70.39" stroke-opacity="1.00" stroke-linejoin="round"/>
<path d="M565.54,197.80 C537.30,202.57 471.11,213.74 433.16,220.15 C420.93,222.22 407.51,224.48 406.34,224.68 C432.54,211.98 492.88,182.76 527.02,166.24 C546.71,156.77 548.41,156.03 548.27,156.19 C548.16,156.30 530.20,166.30 522.91,171.65 C517.17,175.87 505.17,184.47 498.99,188.39 C489.34,194.40 459.72,209.69 447.36,214.93 C446.24,215.40 443.73,216.48 442.34,217.08 C441.96,217.25 441.40,217.50 440.67,217.84" fill="#FFF" stroke="rgb(0, 0, 0)" stroke-width="70.39" stroke-opacity="1.00" stroke-linejoin="round"/>
<path d="M475.62,206.83 C475.61,205.06 474.83,203.16 473.13,201.11 C471.22,198.85 454.69,191.10 448.56,188.40 C431.12,181.43 421.73,176.65 413.99,172.31" fill="#FFF" stroke="rgb(0, 0, 0)" stroke-width="30.50" stroke-opacity="1.00" stroke-linejoin="round"/>
<path d="M399.43,179.46 C399.43,179.46 388.02,176.05 388.02,176.05" fill="#FFF" stroke="rgb(0, 0, 0)" stroke-width="30.50" stroke-opacity="1.00" stroke-linejoin="round"/>
<path d="M386.34,183.26 C386.34,183.26 380.35,191.80 380.35,191.80" fill="#FFF" stroke="rgb(0, 0, 0)" stroke-width="30.50" stroke-opacity="1.00" stroke-linejoin="round"/>
<path d="M383.69,188.90 C383.69,188.90 365.23,206.61 365.23,206.61" fill="#FFF" stroke="rgb(0, 0, 0)" stroke-width="30.50" stroke-opacity="1.00" stroke-linejoin="round"/>
<path d="M384.11,223.19 C387.07,224.38 389.78,225.82 393.76,228.38 C396.77,230.25 402.00,232.37 405.28,233.09 C408.31,233.72 415.00,233.58 418.86,232.82 C421.07,232.38 443.65,225.83 445.97,225.04 C451.86,223.01 463.79,217.09 470.03,212.72 C474.55,209.50 478.32,206.56 479.75,204.82 C480.47,203.92 482.78,200.89 483.66,199.73" fill="#FFF" stroke="rgb(0, 0, 0)" stroke-width="30.50" stroke-opacity="1.00" stroke-linejoin="round"/>
<path d="M344.58,163.78 C355.15,160.44 382.13,151.93 398.54,146.76 C407.56,144.16 425.16,139.71 433.74,137.86 C442.18,136.26 460.85,133.37 471.11,132.61 C481.91,131.83 502.16,132.15 512.07,133.25 C521.33,134.30 532.45,137.11 534.34,138.87 C535.27,139.80 535.16,141.91 533.89,143.16 C531.19,145.73 517.58,151.13 503.46,155.34 C494.01,158.16 465.10,166.55 464.12,167.28 C463.25,167.94 446.40,178.35 439.89,182.55 C435.05,185.77 421.26,195.79 414.53,201.10 C407.79,206.71 395.87,216.76 390.68,221.19 C390.68,221.19 370.29,220.34 370.29,220.34" fill="#FFF" stroke="rgb(0, 0, 0)" stroke-width="30.50" stroke-opacity="1.00" stroke-linejoin="round"/>
<path d="M392.71,221.74 C392.71,221.74 457.56,167.01 457.56,167.01 C453.03,171.48 445.78,178.55 438.17,185.06 C425.04,196.02 401.36,215.71 393.19,222.24 C393.19,222.24 372.73,222.49 372.73,222.49" fill="#FFF" stroke="rgb(0, 0, 0)" stroke-width="30.50" stroke-opacity="1.00" stroke-linejoin="round"/>
<path d="M360.62,251.64 C360.62,251.64 356.64,250.17 356.64,250.17" fill="#FFF" stroke="rgb(0, 0, 0)" stroke-width="30.50" stroke-opacity="1.00" stroke-linejoin="round"/>
<path d="M347.78,249.54 C347.78,249.54 333.92,255.66 333.92,255.66" fill="#FFF" stroke="rgb(0, 0, 0)" stroke-width="30.50" stroke-opacity="1.00" stroke-linejoin="round"/>
<path d="M471.24,273.02 C461.09,282.63 446.94,294.66 438.66,301.59 C433.53,305.82 415.12,317.74 405.38,323.25 C394.48,329.21 364.12,343.46 353.03,348.18 C332.81,356.29 304.36,366.12 300.30,367.36 C299.22,367.67 294.38,369.06 291.48,368.75 C291.00,368.70 179.15,358.34 178.09,358.30 C178.03,358.30 290.88,369.96 290.80,369.97 C289.94,370.06 286.19,370.31 285.18,370.40 C283.55,370.56 281.98,370.00 281.43,370.04 C279.23,370.24 277.30,371.50 275.49,373.89 C272.63,377.71 264.62,384.86 261.31,386.90" fill="#FFF" stroke="rgb(0, 0, 0)" stroke-width="30.50" stroke-opacity="1.00" stroke-linejoin="round"/>
<path d="M258.57,322.14 C258.57,322.14 247.22,335.37 247.22,335.37" fill="#FFF" stroke="rgb(0, 0, 0)" stroke-width="30.50" stroke-opacity="1.00" stroke-linejoin="round"/>
<path d="M239.35,365.91 C248.64,363.58 274.12,353.90 286.85,349.02 C291.85,346.50 298.20,343.44 301.37,342.24 C309.93,339.12 329.45,328.78 344.45,319.99 C370.00,303.56 408.82,281.10 428.12,270.32 C430.37,269.06 442.59,262.62 447.40,260.20 C460.05,253.65 471.19,249.33 474.79,248.11" fill="#FFF" stroke="rgb(0, 0, 0)" stroke-width="30.50" stroke-opacity="1.00" stroke-linejoin="round"/>
<path d="M405.73,256.81 C401.47,257.01 399.33,257.56 392.33,260.30 C391.20,260.75 388.03,261.73 387.35,261.89 C387.19,261.93 387.10,261.93 387.09,261.89" fill="#FFF" stroke="rgb(0, 0, 0)" stroke-width="30.50" stroke-opacity="1.00" stroke-linejoin="round"/>
<path d="M300.26,282.75 C296.54,285.01 293.24,287.88 291.47,291.01 C284.41,304.64 278.29,313.87 268.39,326.89 C263.76,333.11 260.49,338.96 256.61,348.22 C255.12,351.85 254.01,356.12 253.86,359.15 C253.84,360.45 254.39,362.65 255.09,363.60 C256.46,365.34 260.60,364.89 266.45,363.40 C269.95,362.46 283.90,357.92 283.89,357.81 C283.87,357.73 161.85,343.12 161.13,342.83 C161.05,342.79 286.83,355.56 287.28,355.63 C289.67,355.96 290.56,355.85 293.75,354.81 C308.57,350.20 335.12,340.94 343.35,336.82 C346.95,334.95 359.74,327.98 364.26,324.67 C375.07,316.69 383.33,307.86 387.24,302.76 C389.46,299.81 391.27,296.43 392.10,293.52 C392.45,292.10 392.39,289.33 391.84,287.43 C391.29,285.61 389.86,283.34 388.76,282.25 C386.96,280.59 383.03,278.35 380.24,277.36 C377.04,276.27 370.51,275.23 367.34,275.28 C361.31,275.43 349.86,278.07 345.44,279.69 C338.96,282.08 327.80,287.55 322.91,290.60 C318.10,293.69 305.93,301.87 300.01,305.92 C294.60,309.75 290.42,313.27 289.40,313.87 C289.08,314.05 310.17,296.17 315.32,291.86 C315.32,291.86 344.22,267.92 344.22,267.92 C344.83,267.49 354.41,256.14 358.95,251.46 C373.01,237.39 397.41,214.46 399.53,212.49" fill="#FFF" stroke="rgb(0, 0, 0)" stroke-width="30.50" stroke-opacity="1.00" stroke-linejoin="round"/>
<path d="M325.22,260.79 C325.22,260.79 326.64,261.36 326.64,261.36" fill="#FFF" stroke="rgb(0, 0, 0)" stroke-width="30.50" stroke-opacity="1.00" stroke-linejoin="round"/>
<path d="M341.78,255.16 C341.78,255.16 356.45,246.89 356.45,246.89" fill="#FFF" stroke="rgb(0, 0, 0)" stroke-width="30.50" stroke-opacity="1.00" stroke-linejoin="round"/>
<path d="M430.54,260.34 C421.14,264.57 402.18,273.26 392.61,277.72 C378.29,284.73 361.58,294.06 354.42,298.26 C352.87,299.14 348.60,301.43 344.95,302.89 C343.25,303.59 328.99,316.67 327.08,318.30 C324.20,320.76 318.77,326.60 318.39,326.93 C317.13,328.00 314.24,328.99 312.14,329.21 C311.36,329.28 303.73,329.37 300.98,330.43 C295.00,332.78 276.82,343.79 261.33,354.52 C258.79,356.26 246.76,367.68 245.68,368.30 C245.68,368.30 310.58,307.15 310.58,307.15 C319.41,301.34 337.13,288.65 347.45,280.64 C356.08,273.63 365.52,265.64 368.10,263.43" fill="#FFF" stroke="rgb(0, 0, 0)" stroke-width="30.50" stroke-opacity="1.00" stroke-linejoin="round"/>
<path d="M160.64,346.75 C147.23,336.78 142.25,332.66 143.08,331.77 C144.31,330.70 156.54,333.98 169.19,338.22 C178.98,341.68 195.15,347.39 201.52,349.65 C223.79,332.81 277.54,292.18 309.02,268.38 C320.15,259.97 335.44,248.42 339.59,245.28" fill="#FFF" stroke="rgb(0, 0, 0)" stroke-width="30.50" stroke-opacity="1.00" stroke-linejoin="round"/>
<path d="M353.53,249.09 C353.53,249.09 372.54,249.11 372.54,249.11" fill="#FFF" stroke="rgb(0, 0, 0)" stroke-width="30.50" stroke-opacity="1.00" stroke-linejoin="round"/>
<path d="M364.31,253.24 C364.31,253.24 370.69,255.70 370.69,255.70" fill="#FFF" stroke="rgb(0, 0, 0)" stroke-width="30.50" stroke-opacity="1.00" stroke-linejoin="round"/>
<path d="M344.07,262.71 C334.41,272.60 312.66,295.04 300.64,308.08 C289.53,320.64 275.92,336.06 273.41,338.93 C276.62,336.54 298.73,313.45 304.09,309.01 C307.00,306.65 313.20,303.57 315.29,303.88 C316.41,305.30 316.40,308.76 315.92,313.73 C315.74,315.55 315.67,318.41 315.87,319.81 C316.15,321.50 317.59,324.14 318.84,325.27 C321.19,327.28 328.12,328.51 331.08,328.36 C335.29,328.11 352.52,324.28 360.12,322.51 C368.06,320.49 384.03,316.31 391.31,314.23 C399.07,311.94 414.46,305.79 418.94,303.78 C431.45,297.97 459.82,282.28 473.78,274.45 C483.23,269.03 486.70,266.66 496.30,259.59 C502.83,254.81 518.78,243.29 521.42,241.69 C525.71,239.11 538.32,235.14 540.87,235.81 C542.58,236.30 549.34,240.39 552.93,242.57 C558.09,245.85 560.98,248.18 561.71,250.14 C562.49,252.46 562.82,255.73 562.71,259.03 C562.47,263.34 561.57,265.63 560.60,267.27 C558.62,270.53 551.62,276.82 550.35,277.98 C521.20,304.23 481.58,340.17 482.28,340.07 C483.45,339.77 547.97,286.76 547.79,287.10 C543.98,293.59 526.10,305.34 526.03,305.41" fill="#FFF" stroke="rgb(0, 0, 0)" stroke-width="30.50" stroke-opacity="1.00" stroke-linejoin="round"/>
<path d="M331.66,424.15 C331.66,424.15 304.08,446.80 304.08,446.80" fill="#FFF" stroke="rgb(0, 0, 0)" stroke-width="30.50" stroke-opacity="1.00" stroke-linejoin="round"/>
<path d="M304.60,450.80 C304.60,450.80 296.99,460.43 296.99,460.43 C277.90,485.26 222.34,557.77 211.22,573.88 C206.75,580.62 203.62,585.83 201.59,589.90 C201.20,590.67 201.22,593.02 200.70,593.75 C200.50,594.05 200.32,592.72 200.67,592.69 C201.72,592.56 202.59,593.63 203.63,593.77 C204.90,593.88 218.81,582.52 231.85,570.79 C246.94,557.13 265.68,540.17 269.33,536.86" fill="#FFF" stroke="rgb(0, 0, 0)" stroke-width="30.50" stroke-opacity="1.00" stroke-linejoin="round"/>
<path d="M394.85,402.37 C394.85,402.37 429.33,390.17 429.33,390.17" fill="#FFF" stroke="rgb(0, 0, 0)" stroke-width="30.50" stroke-opacity="1.00" stroke-linejoin="round"/>
<path d="M301.63,437.44 C312.98,430.90 334.74,418.57 347.69,412.25 C352.41,410.01 368.97,403.72 370.60,403.11 C380.11,399.56 461.37,374.41 466.76,373.05 C477.01,370.48 479.74,369.53 489.30,365.76 C519.24,354.51 546.07,345.90 550.68,344.20 C553.98,342.95 562.48,339.19 570.13,334.53 C577.05,330.29 595.96,316.34 599.88,312.91" fill="#FFF" stroke="rgb(0, 0, 0)" stroke-width="30.50" stroke-opacity="1.00" stroke-linejoin="round"/>
<path d="M601.95,255.01 C597.18,261.36 590.46,268.16 583.26,274.43 C574.19,282.44 550.46,308.85 538.97,321.16 C534.00,326.39 522.95,337.86 518.59,342.10 C506.40,353.41 487.73,367.31 480.91,374.03 C486.59,369.72 507.37,347.82 522.25,333.52 C528.62,327.53 539.90,316.97 544.82,312.40 C553.39,304.65 560.86,298.90 566.48,294.81 C583.66,282.66 596.82,274.27 599.09,272.85 C589.05,281.60 566.28,301.82 553.55,313.31 C517.55,347.09 493.59,368.95 478.65,382.75" fill="#FFF" stroke="rgb(0, 0, 0)" stroke-width="30.50" stroke-opacity="1.00" stroke-linejoin="round"/>
<path d="M469.69,378.78 C473.10,374.75 482.88,364.39 488.10,358.89 C495.45,351.29 501.28,345.75 506.79,341.40 C508.31,340.20 509.67,339.44 512.25,338.24 C511.95,339.65 507.63,342.91 506.89,343.31 C506.24,343.66 487.71,351.03 481.07,354.88 C474.77,358.61 462.86,365.66 453.44,370.75 C445.82,374.60 431.46,381.70 424.72,384.94 C419.59,387.29 390.23,398.27 376.96,404.94 C372.59,407.20 355.30,417.16 351.59,419.57 C345.28,423.69 335.43,431.46 332.14,434.06 C311.02,454.99 264.14,501.41 238.39,526.90 C234.36,530.89 229.48,535.73 228.63,536.57" fill="#FFF" stroke="rgb(0, 0, 0)" stroke-width="30.50" stroke-opacity="1.00" stroke-linejoin="round"/>
<path d="M308.02,455.30 C308.02,455.30 281.16,482.22 281.16,482.22" fill="#FFF" stroke="rgb(0, 0, 0)" stroke-width="30.50" stroke-opacity="1.00" stroke-linejoin="round"/>
<path d="M302.62,461.59 C302.62,461.59 279.04,489.41 279.04,489.41" fill="#FFF" stroke="rgb(0, 0, 0)" stroke-width="30.50" stroke-opacity="1.00" stroke-linejoin="round"/>
<path d="M300.02,463.61 C300.02,463.61 277.01,491.73 277.01,491.73" fill="#FFF" stroke="rgb(0, 0, 0)" stroke-width="30.50" stroke-opacity="1.00" stroke-linejoin="round"/>
<path d="M575.37,252.15 C571.86,251.79 563.96,251.02 560.69,251.43 C555.47,252.13 546.20,255.91 533.82,261.46 C530.35,263.01 524.36,265.71 522.69,266.39" fill="#FFF" stroke="rgb(0, 0, 0)" stroke-width="30.50" stroke-opacity="1.00" stroke-linejoin="round"/>
<path d="M497.64,277.84 C497.64,277.84 461.67,281.91 461.67,281.91" fill="#FFF" stroke="rgb(0, 0, 0)" stroke-width="30.50" stroke-opacity="1.00" stroke-linejoin="round"/>
<path d="M523.12,266.10 C527.18,264.85 546.35,260.50 550.96,259.83 C555.54,259.17 562.44,259.06 564.14,259.19 C566.93,259.44 571.63,261.43 573.20,263.64 C573.96,264.76 574.94,267.32 575.10,268.54 C575.39,271.42 573.83,279.46 572.66,281.04 C572.46,281.30 568.15,285.66 566.55,286.59 C563.87,288.07 557.57,289.53 554.77,288.82 C549.84,287.47 538.88,280.49 538.26,280.04 C535.49,277.96 532.14,270.24 531.24,270.09 C530.11,269.95 527.81,271.41 526.09,273.06 C525.81,273.34 490.76,306.61 476.46,320.45 C458.90,337.75 427.80,368.03 414.28,381.01 C403.48,390.88 397.46,395.02 397.84,393.86 C398.66,391.45 414.67,371.31 426.40,357.37 C442.08,339.23 471.71,304.78 485.68,288.49 C496.02,276.09 513.93,254.38 514.00,254.21 C514.67,252.65 514.73,251.50 514.18,250.77 C513.75,250.22 508.25,248.79 507.01,248.23 C505.73,247.69 503.44,245.85 502.83,245.53 C501.06,244.62 493.92,243.50 489.81,243.73 C484.64,244.06 470.54,248.28 465.05,250.52 C457.78,253.54 449.66,257.54 442.05,261.66 C432.00,267.43 399.92,287.16 385.35,296.26 C377.95,301.14 363.66,310.66 360.40,313.04 C362.92,312.44 382.18,294.81 402.39,278.93 C408.68,274.06 420.72,264.89 426.46,260.59 C430.58,257.64 500.39,213.45 510.88,206.46 C506.26,209.24 442.16,259.16 415.88,279.49 C406.11,287.25 369.22,318.79 367.29,320.45 C371.89,318.28 393.65,298.71 411.36,284.87 C425.39,274.18 457.74,250.00 465.23,245.13 C477.11,237.16 504.66,218.69 515.25,212.21 C530.37,203.37 554.73,190.81 567.83,185.16 C573.57,182.78 589.90,177.38 593.26,176.81 C601.57,175.53 605.15,176.32 606.24,176.70 C607.19,179.22 607.29,180.88 606.30,182.74 C603.73,187.50 593.92,199.27 587.76,204.55 C585.80,206.22 571.01,218.00 564.65,222.98 C555.66,229.78 529.20,247.62 516.74,256.21 C509.89,260.64 495.53,268.86 488.24,272.72 C473.83,280.06 453.29,288.55 445.22,291.38 C450.90,286.23 474.19,270.61 480.31,266.65 C483.85,264.43 488.49,261.52 489.59,260.83" fill="#FFF" stroke="rgb(0, 0, 0)" stroke-width="30.50" stroke-opacity="1.00" stroke-linejoin="round"/>
<path d="M591.36,358.68 C584.82,364.97 577.97,373.37 572.87,381.19 C568.04,388.64 550.47,420.67 542.69,434.61 C534.56,448.62 518.84,474.92 511.25,487.21 C509.00,491.06 506.30,496.55 503.81,500.45 C502.04,503.21 487.70,523.25 485.02,526.59 C481.67,530.75 472.72,539.19 472.44,539.11 C478.95,526.25 494.61,496.06 499.47,487.40 C504.29,479.08 512.43,467.48 515.75,464.11 C517.43,462.41 521.12,460.20 521.89,459.75 C522.77,460.49 522.99,461.07 522.73,462.43 C521.74,467.98 510.37,503.94 505.69,518.57 C502.97,527.01 487.33,562.49 481.93,573.12 C470.27,595.37 467.05,601.14 464.87,604.82 C470.71,594.00 475.63,584.44 478.68,576.97 C483.97,563.33 496.23,532.76 501.24,521.65 C504.48,514.79 511.24,501.01 514.75,494.08 C518.75,486.48 523.02,480.59 528.00,474.60 C533.23,468.35 537.93,465.64 540.05,465.15 C541.56,466.57 542.68,470.02 542.86,474.66 C542.96,478.86 542.99,485.02 542.99,488.29 C542.97,495.54 542.96,507.13 542.96,511.48" fill="#FFF" stroke="rgb(0, 0, 0)" stroke-width="30.50" stroke-opacity="1.00" stroke-linejoin="round"/>
<path d="M571.55,603.92 C569.49,604.67 565.44,608.76 564.29,610.72 C562.61,613.68 556.26,630.62 553.38,638.53 C550.13,648.03 540.13,684.96 537.15,698.35 C534.20,712.83 528.38,742.78 525.84,758.06 C523.76,772.89 519.23,803.26 516.39,819.54 C513.48,834.91 507.23,866.23 504.11,877.73 C501.96,885.05 498.69,896.24 498.28,897.82 C498.89,894.81 499.64,877.82 499.79,871.80 C499.85,869.46 499.93,865.67 499.97,864.20" fill="#FFF" stroke="rgb(0, 0, 0)" stroke-width="30.50" stroke-opacity="1.00" stroke-linejoin="round"/>
<path d="M501.98,797.49 C501.83,781.96 501.16,742.07 500.01,733.98 C499.50,730.55 497.68,723.90 496.36,722.40 C495.49,721.50 493.88,721.04 491.97,721.14 C490.11,721.29 488.25,722.01 487.41,723.03 C486.29,724.46 480.41,738.96 476.78,750.00 C472.23,765.06 461.95,799.35 458.51,809.94 C456.52,815.54 451.70,827.78 448.77,834.57 C445.34,842.09 437.31,856.39 436.26,857.97 C435.38,859.28 429.98,865.68 428.86,866.16 C427.66,866.67 425.63,866.56 424.42,866.16 C422.61,862.23 420.21,848.98 419.02,842.15 C416.48,825.62 414.28,796.21 413.62,775.76 C413.08,759.39 412.05,729.23 411.54,715.44 C411.38,712.37 410.30,706.42 409.80,703.78 C407.64,703.76 406.59,704.32 405.68,706.37 C402.30,713.83 399.41,723.66 397.61,732.83 C391.53,765.01 379.14,828.14 372.84,859.09 C371.73,863.88 369.69,872.11 369.56,873.04 C371.93,863.74 377.14,829.64 379.82,811.77 C382.04,796.45 385.02,775.04 385.76,768.95 C386.30,763.42 385.88,761.87 384.76,759.42 C382.23,758.87 380.65,758.93 378.89,759.91 C374.01,762.65 366.90,769.71 359.81,777.41 C354.68,783.12 346.86,794.00 341.49,802.21 C324.42,829.41 302.05,864.83 296.76,873.04 C302.63,859.13 314.28,832.05 320.05,818.88 C326.53,804.87 343.55,771.19 346.87,765.84 C349.65,761.39 354.86,754.57 355.53,753.70 C354.98,754.30 332.02,799.91 329.39,804.96 C322.83,816.98 305.90,843.95 297.34,857.25 C294.60,861.39 291.53,865.48 289.03,868.33 C291.18,861.41 295.04,849.33 298.77,839.48 C302.30,830.79 307.67,819.03 311.00,812.34 C314.47,805.69 323.25,789.76 325.10,786.72 C328.24,781.56 336.58,769.96 340.53,765.25 C347.26,757.29 350.72,754.91 352.09,754.34 C351.59,757.21 328.28,837.38 318.65,868.99 C316.79,875.00 313.92,883.83 312.70,892.47 C314.12,893.03 315.92,893.65 316.56,893.64 C317.91,893.59 320.62,890.55 322.86,887.69 C327.03,882.36 332.28,872.44 337.11,862.61 C351.19,832.82 374.88,782.84 379.00,775.90 C383.82,767.80 389.15,760.01 391.52,757.06 C392.42,755.95 393.43,755.81 395.51,756.25 C395.06,763.49 393.40,772.84 392.00,779.62 C384.31,814.06 373.36,862.88 370.10,877.26 C368.29,885.16 361.93,906.96 360.51,913.28 C364.08,906.85 367.78,898.57 370.63,889.89 C380.14,860.13 393.73,818.33 408.37,769.41 C410.80,761.26 414.97,747.36 416.70,741.61 C418.07,737.38 419.94,734.31 422.99,730.14 C424.32,732.63 424.98,735.61 425.18,739.99 C425.35,746.64 422.79,783.27 421.16,801.49 C417.44,835.49 409.42,900.87 408.35,911.23" fill="#FFF" stroke="rgb(0, 0, 0)" stroke-width="30.50" stroke-opacity="1.00" stroke-linejoin="round"/>
<path d="M424.35,917.88 C427.25,909.96 434.91,881.21 438.79,866.15 C443.17,848.37 456.35,788.43 459.51,774.13 C463.17,758.98 468.96,747.39 471.27,743.27 C472.73,745.79 473.36,747.21 473.48,748.63 C474.06,755.83 473.58,779.79 471.74,801.60 C468.43,834.71 463.23,884.83 461.33,901.84 C460.70,907.82 459.58,918.07 459.94,922.97 C459.94,922.97 462.38,924.08 462.38,924.08 C464.74,921.64 467.19,917.49 468.47,913.77 C469.74,909.97 475.49,888.22 476.55,883.21 C478.34,874.59 482.91,836.32 484.84,821.06 C486.12,812.62 488.87,796.83 490.24,789.32 C491.74,781.71 496.12,767.19 498.22,763.76 C499.56,766.91 499.97,772.21 500.11,774.48 C500.82,786.17 501.28,820.04 501.32,834.34 C500.96,851.97 499.25,887.86 498.27,905.16 C497.07,922.24 494.77,954.54 493.93,962.95 C495.20,962.28 495.98,961.44 496.39,959.93 C496.96,957.82 503.95,875.37 505.11,867.33 C505.68,863.38 509.17,847.19 511.05,841.46 C512.17,838.09 514.79,832.27 516.96,827.75 C518.61,824.35 520.54,821.46 523.25,819.14 C525.01,817.68 526.96,816.77 528.10,816.97 C529.10,817.21 530.86,818.91 531.45,820.32 C532.92,823.97 533.98,840.38 533.14,845.74 C532.39,850.42 529.42,863.57 526.73,874.03 C524.24,882.95 520.41,894.76 518.04,901.43 C515.05,909.29 509.21,922.18 505.76,929.25 C501.37,938.06 497.36,945.53 493.29,951.47 C490.89,954.94 484.91,963.45 484.02,964.48 C482.33,966.41 476.34,970.42 473.76,972.11 C472.14,971.26 469.88,969.30 468.73,967.50 C467.59,965.68 465.29,948.41 464.92,941.79 C464.41,932.31 464.74,905.39 466.10,886.03 C467.38,870.65 471.16,837.47 473.14,821.89 C475.49,805.65 480.36,773.67 482.88,757.92 C485.51,742.91 492.09,710.88 495.37,697.98 C499.13,684.45 507.50,655.85 511.93,644.50 C514.61,637.73 521.36,621.18 523.00,617.69 C526.18,610.94 534.43,596.72 538.09,591.93 C540.45,588.78 542.40,587.11 545.98,584.97 C548.19,587.29 549.86,591.02 550.15,595.35 C550.55,601.88 549.92,640.01 549.42,655.22 C548.12,681.64 543.25,748.92 540.70,781.94 C537.16,823.70 533.91,843.87 534.02,849.75 C535.78,848.20 536.51,847.26 537.07,845.53 C539.36,838.85 542.49,824.42 543.53,818.62 C545.70,805.05 556.48,726.83 560.38,694.96 C562.13,679.12 565.87,646.79 567.87,630.29 C570.22,613.41 575.74,579.86 578.56,563.79 C580.99,550.84 587.28,521.57 591.48,506.52 C596.66,488.63 604.04,467.91 611.27,450.12 C615.01,441.26 618.96,434.16 624.37,427.18 C630.12,419.88 638.85,411.18 641.55,409.61 C642.86,408.86 645.38,407.76 646.95,407.17 C648.16,407.79 649.84,409.21 650.50,410.46 C651.79,412.98 651.11,427.04 649.98,438.86 C649.45,444.72 649.56,445.35 650.07,445.77 C651.67,442.95 665.09,406.77 671.09,391.04 C675.31,380.46 678.91,372.49 682.53,365.50 C685.82,359.41 694.58,343.84 696.56,340.67 C700.98,333.67 706.06,327.96 707.58,326.33 C707.13,326.58 684.11,360.45 674.73,373.18 C665.32,385.38 641.92,415.06 639.33,418.61 C642.78,415.53 669.83,380.38 674.99,374.89 C680.00,369.75 693.21,356.37 695.13,354.52 C700.37,349.52 711.72,341.73 715.57,339.67 C718.74,338.02 720.16,338.18 721.61,338.66 C721.50,342.19 719.73,347.64 718.75,349.94 C716.31,355.58 709.95,366.05 704.84,373.13 C700.55,378.97 690.69,390.46 685.06,395.62 C679.26,400.91 668.52,408.87 663.42,412.05 C659.85,414.25 652.11,418.43 649.00,419.52 C645.71,420.63 642.68,419.66 641.50,419.14 C641.04,417.37 640.49,414.95 640.39,413.95 C640.22,412.27 647.84,392.85 649.37,390.06 C650.98,387.13 661.04,371.44 664.63,366.64 C667.09,363.37 679.81,347.85 682.43,344.99 C686.84,340.20 697.92,329.73 703.52,325.89 C707.69,323.11 710.84,321.13 712.87,320.34 C714.66,319.67 719.16,318.22 720.44,318.01 C721.92,317.79 724.97,318.31 726.05,318.91 C728.33,320.29 730.35,325.16 730.65,328.81 C731.03,333.99 728.64,348.41 725.99,355.44 C723.82,361.14 715.15,375.80 712.15,379.85 C709.21,383.78 694.94,399.06 693.29,400.71 C689.19,404.79 676.15,415.03 671.22,418.35 C663.46,423.48 651.07,430.02 644.52,432.27 C641.17,433.40 634.71,434.46 633.08,434.34 C631.55,434.19 627.03,432.99 625.77,432.27 C624.24,431.35 622.29,428.31 621.75,426.29 C621.16,423.79 622.18,416.10 623.32,412.34 C625.42,405.55 629.69,394.71 633.22,388.77 C637.71,381.31 646.33,370.44 650.45,365.91 C654.51,361.48 668.65,348.23 671.24,346.07 C673.51,344.20 686.95,334.99 693.94,331.09 C700.90,327.30 714.48,322.36 718.44,321.81 C719.62,321.66 728.12,322.09 729.34,322.35 C731.06,322.75 733.88,324.07 734.79,325.00 C735.73,326.02 736.76,328.86 736.91,330.61 C737.04,332.72 735.53,339.97 734.31,343.19 C731.67,349.97 724.05,362.39 719.07,368.60 C713.59,375.31 704.48,385.40 700.20,389.60 C696.21,393.50 681.09,406.43 677.50,409.26 C663.54,420.00 650.98,425.59 649.97,426.02 C649.97,426.02 648.86,425.12 648.86,425.12 C650.93,420.00 670.67,386.28 677.88,374.85 C681.92,368.72 691.82,354.09 694.70,350.33 C699.41,344.37 709.39,332.50 714.29,326.96 C720.43,320.15 730.14,311.14 737.26,305.86 C741.27,302.95 746.15,299.80 748.55,298.95 C750.78,298.19 754.70,298.36 756.29,298.53 C757.11,299.59 758.15,301.62 758.40,303.03 C758.98,306.47 754.53,320.20 750.83,330.14 C745.35,343.83 732.58,373.14 727.62,383.32 C722.28,393.68 702.91,426.92 698.38,433.02 C694.79,437.79 693.97,438.74 692.70,440.05 C692.25,439.30 694.01,434.03 695.05,430.90 C697.92,422.74 701.88,413.12 706.03,404.32 C709.11,398.05 716.44,384.26 718.47,380.90 C721.97,375.13 730.02,364.73 732.62,362.43 C732.37,369.13 730.35,380.08 727.70,392.48 C725.10,403.75 722.56,412.73 719.74,421.05 C713.23,438.95 704.89,458.52 695.51,478.29 C692.44,484.78 687.73,494.75 687.24,498.08 C687.24,498.08 689.10,500.15 689.10,500.15 C692.26,499.51 696.83,497.64 699.51,495.55 C702.55,493.15 717.17,479.63 723.23,473.96 C735.41,462.81 744.56,456.10 745.80,455.22" fill="#FFF" stroke="rgb(0, 0, 0)" stroke-width="30.50" stroke-opacity="1.00" stroke-linejoin="round"/>
<path d="M822.52,454.77 C825.74,455.43 841.88,457.00 848.40,457.13 C853.81,457.18 858.75,456.82 862.71,455.94 C868.88,454.49 882.93,449.22 889.08,445.98 C894.11,443.31 912.79,431.42 915.09,429.76 C925.90,421.89 938.31,408.62 943.60,402.46" fill="#FFF" stroke="rgb(0, 0, 0)" stroke-width="30.50" stroke-opacity="1.00" stroke-linejoin="round"/>
<path d="M799.86,443.34 C788.39,443.76 780.63,444.29 773.78,444.24 C769.84,444.17 765.15,443.33 759.88,442.10 C756.69,441.31 737.00,430.24 736.33,429.94 C735.80,429.70 732.54,429.21 732.04,428.93 C731.73,428.77 731.13,428.31 730.24,427.56 C730.86,426.02 731.40,425.32 734.05,422.69 C734.73,422.01 737.37,419.05 738.34,417.97" fill="#FFF" stroke="rgb(0, 0, 0)" stroke-width="30.50" stroke-opacity="1.00" stroke-linejoin="round"/>
<path d="M961.97,377.48 C961.97,377.48 961.88,377.52 961.88,377.52" fill="#FFF" stroke="rgb(0, 0, 0)" stroke-width="30.50" stroke-opacity="1.00" stroke-linejoin="round"/>
<path d="M790.28,455.49 C775.77,457.44 735.67,462.52 732.78,462.98 C725.93,464.07 711.46,468.50 706.52,470.60 C700.47,473.20 688.97,480.16 683.04,484.48 C678.48,487.83 667.59,497.73 662.19,503.93 C658.24,508.51 653.08,516.55 647.27,526.38 C639.21,540.53 626.12,568.00 620.27,581.23 C614.73,594.52 602.16,628.18 598.71,638.53 C592.51,657.61 592.23,665.74 592.52,669.36 C595.07,667.61 596.11,666.66 596.90,665.20 C600.22,659.41 614.00,627.34 620.45,612.08 C626.51,597.10 638.37,567.12 644.16,552.12 C652.79,528.23 666.29,486.35 672.13,466.69 C673.49,461.47 673.98,456.14 673.05,453.93 C671.39,453.49 670.03,453.54 668.88,454.46 C665.74,456.99 658.44,469.46 654.16,478.37 C650.73,485.63 647.15,494.51 643.53,504.97 C638.52,520.18 629.06,550.15 624.61,564.91 C616.80,594.23 597.01,669.20 592.09,684.88 C590.75,688.94 585.21,703.24 581.80,709.67 C579.46,713.98 577.24,717.53 574.59,721.01 C573.48,722.47 572.57,723.11 570.87,723.79 C571.17,716.12 572.25,706.96 573.63,698.29 C576.90,680.07 592.06,607.75 598.66,577.30 C602.03,562.88 609.01,533.47 612.63,518.48 C616.73,502.90 625.35,471.66 629.86,456.00 C635.33,438.05 642.05,418.90 644.52,412.26 C642.16,417.71 632.38,450.76 627.96,466.29 C623.56,482.31 615.97,510.71 612.78,523.09 C605.87,554.02 591.23,620.38 583.49,655.81 C577.03,685.78 562.86,753.49 558.71,777.00 C554.75,801.75 553.38,812.10 553.39,813.69 C553.40,814.01 553.45,814.65 553.55,815.60" fill="#FFF" stroke="rgb(0, 0, 0)" stroke-width="30.50" stroke-opacity="1.00" stroke-linejoin="round"/>
<path d="M641.55,481.93 C631.97,501.69 624.48,518.99 619.54,535.10 C615.22,550.08 608.03,577.21 604.90,589.38 C597.46,621.73 582.82,687.00 575.62,719.92 C572.31,736.07 567.66,762.93 565.79,777.22 C562.68,809.55 558.09,858.12 556.60,874.35 C555.78,883.33 555.47,888.53 555.99,896.45 C558.07,893.72 562.60,877.51 564.50,870.35 C564.85,869.00 565.41,866.82 565.62,866.00" fill="#FFF" stroke="rgb(0, 0, 0)" stroke-width="30.50" stroke-opacity="1.00" stroke-linejoin="round"/>
<path d="M620.27,592.17 C620.27,592.17 619.84,589.89 619.84,589.89 C617.08,593.73 611.91,606.51 609.21,613.30 C606.21,621.02 601.12,635.25 599.61,640.22 C594.13,659.69 576.47,729.94 570.02,758.35 C563.70,788.59 549.39,856.42 545.35,871.77 C552.30,842.41 563.35,797.41 567.45,781.77 C570.06,772.01 571.93,766.27 575.55,757.21 C580.27,745.62 583.84,737.61 588.21,728.75 C591.68,722.12 598.96,709.32 602.66,702.98 C606.82,696.14 615.08,685.04 620.73,679.25 C627.43,672.44 633.41,666.82 640.73,660.93 C646.83,656.03 655.32,650.91 664.79,645.58 C679.46,637.71 713.44,620.17 716.55,618.32 C722.66,614.64 787.14,569.11 798.61,561.81 C803.63,558.74 819.71,549.78 824.06,547.65 C830.10,544.69 847.73,537.50 851.88,536.13 C858.79,533.87 873.10,532.16 877.90,532.34 C876.00,535.86 874.08,538.98 871.65,541.77 C866.95,547.09 853.62,558.02 848.52,561.72 C841.34,566.91 813.10,583.89 797.69,594.42 C771.51,613.13 721.76,650.23 697.06,668.48 C690.71,673.30 683.21,678.98 682.05,679.84 C686.36,676.77 713.92,650.74 726.22,639.15 C734.84,631.39 741.09,626.67 750.48,620.06 C756.91,615.66 772.59,605.23 776.91,602.72 C790.31,595.20 817.39,582.38 830.73,577.11 C837.37,574.63 851.89,569.44 857.17,567.85 C868.09,564.72 878.22,562.49 888.29,561.84 C889.24,561.79 890.19,561.73 891.14,561.67 C891.14,561.67 891.67,562.78 891.67,562.78 C889.51,566.76 882.77,575.02 875.20,582.35 C869.02,588.15 857.21,598.79 851.65,602.65 C847.74,605.33 835.39,613.17 825.84,618.45 C818.64,622.28 811.46,625.42 800.39,629.30 C779.23,636.33 756.37,642.80 741.65,647.14 C738.38,648.12 734.03,649.44 732.94,649.77 C733.50,648.41 764.65,618.89 773.04,611.44 C783.90,602.17 806.88,585.37 819.34,577.41 C825.06,573.85 839.10,565.61 845.40,562.52 C858.74,555.99 880.71,547.80 891.83,545.20 C891.89,545.92 891.48,546.55 889.78,548.10 C877.69,559.11 855.67,576.09 842.91,585.73 C829.25,595.89 801.98,616.34 788.38,626.64 C776.92,635.56 755.42,652.48 744.36,661.60 C718.31,683.86 666.66,728.40 641.05,750.67 C631.16,759.75 610.35,779.00 599.42,789.17 C587.60,800.34 563.28,823.94 550.79,836.37 C547.06,840.15 542.13,845.17 541.22,845.14 C545.08,839.59 565.71,811.23 576.00,797.15 C586.38,783.45 605.11,759.95 614.44,748.49 C624.81,736.43 645.44,712.89 655.69,701.43 C677.79,677.61 721.57,631.26 743.25,608.71 C748.25,603.52 749.72,600.68 750.14,599.84 C746.81,600.24 744.61,600.87 741.51,602.89 C735.39,607.10 729.43,612.11 721.77,619.15 C712.89,627.62 689.66,651.97 680.21,662.09 C667.44,676.28 618.87,733.38 596.83,759.47 C585.53,773.03 564.31,798.67 554.38,810.74 C545.37,821.94 524.37,848.82 519.14,855.04 C520.75,852.40 537.28,817.93 544.65,802.69 C550.70,790.98 554.57,784.40 560.27,775.68 C568.28,763.87 585.01,739.78 594.15,727.28 C617.53,696.13 636.88,675.16 645.68,666.71 C637.51,679.88 625.11,702.69 617.76,716.46 C610.17,731.03 595.28,759.88 587.99,774.16 C581.41,787.45 568.40,815.52 561.92,829.86 C550.76,855.67 526.19,916.68 513.93,947.52 C511.68,953.22 507.48,964.01 505.53,969.09 C505.53,969.09 510.56,951.72 510.56,951.72 C509.52,951.10 507.41,950.73 505.53,950.98 C503.74,951.24 499.03,954.06 496.40,956.31 C492.78,959.47 482.91,970.28 478.95,975.77 C474.56,981.87 450.74,1021.51 449.25,1023.83 C451.44,1021.55 453.71,1017.87 455.98,1013.23 C462.48,998.88 474.42,972.31 479.86,960.08 C484.53,950.42 504.32,911.81 508.09,903.10 C509.79,899.17 516.29,882.25 516.86,878.50 C517.39,874.43 516.56,872.28 515.01,869.71 C512.01,869.26 510.05,869.44 508.26,870.67 C503.95,873.64 496.66,883.09 490.79,891.22 C481.40,904.41 464.56,932.38 456.35,946.38 C447.40,961.22 436.15,979.36 432.62,985.71 C435.11,984.11 437.98,981.42 440.40,978.35 C443.15,974.83 463.78,943.07 473.78,928.24 C483.23,914.88 501.65,889.25 510.63,876.99 C523.23,860.41 536.73,844.43 549.92,830.16 C560.23,819.47 583.32,798.50 594.54,788.46 C610.16,775.02 618.31,769.75 626.30,765.03 C624.27,770.49 620.46,776.95 615.10,786.50 C607.19,800.63 590.09,831.18 580.91,847.58 C573.79,860.39 561.72,882.28 554.61,897.25 C541.22,926.28 523.33,965.62 517.09,979.39 C513.63,986.88 506.30,1002.51 505.95,1004.98 C509.47,999.74 541.75,929.43 556.44,899.49 C563.87,885.19 578.50,858.84 585.75,846.09 C593.61,832.98 609.71,806.70 618.40,793.33 C627.68,779.71 649.86,748.10 656.20,740.57 C665.87,729.28 682.09,712.95 687.24,709.23 C677.03,730.08 649.62,789.51 637.15,817.14 C623.05,848.05 596.61,905.56 584.25,932.17 C577.71,945.65 564.16,974.27 557.15,989.42 C548.82,1007.27 542.96,1017.28 540.69,1021.13 C541.64,1014.32 549.60,981.18 553.38,966.86 C557.45,953.14 567.93,925.98 575.05,909.88 C581.34,896.42 595.37,868.29 602.61,854.63 C606.38,847.87 613.95,834.64 618.08,827.92 C629.71,809.87 635.73,802.36 637.79,799.82 C638.33,800.58 636.95,805.11 636.17,807.75 C631.84,822.63 610.64,904.08 604.22,931.38 C601.01,945.93 594.23,975.32 590.67,990.16 C588.85,997.42 588.06,1004.41 587.76,1007.26 C589.53,1005.86 590.25,1004.94 590.78,1003.18 C593.03,996.12 600.30,960.14 603.50,943.77 C606.43,927.23 611.70,896.37 614.03,882.06 C616.47,866.24 620.25,835.59 622.05,819.35 C622.76,812.35 624.58,794.03 623.71,792.78 C623.44,792.41 622.59,791.69 621.17,790.61 C618.53,792.77 615.48,796.86 613.29,800.94 C610.46,806.54 604.47,822.99 602.98,827.79 C599.55,839.51 590.98,875.76 588.56,889.82 C586.36,903.02 582.90,935.91 582.22,946.62 C581.85,954.46 582.02,969.94 582.19,977.02 C582.36,981.99 584.28,994.28 585.48,996.67 C586.17,998.01 590.69,1003.38 591.52,1004.35 C596.51,1003.65 601.20,1002.61 604.57,1000.53 C607.30,998.81 613.66,993.41 616.82,990.15 C621.02,985.77 626.43,976.48 631.97,966.42 C639.45,952.48 655.17,921.14 659.72,910.92 C666.91,893.72 672.19,878.93 675.64,868.19 C676.29,866.21 676.16,865.04 675.33,863.35 C672.86,864.87 669.29,868.69 666.68,872.65 C663.32,877.81 655.52,893.47 652.25,900.68 C647.35,912.25 637.69,942.06 633.04,956.97 C625.23,982.09 622.63,989.13 620.16,995.40 C623.01,988.27 625.99,976.76 627.68,970.27 C632.16,952.59 643.63,908.08 645.83,901.18 C650.11,887.88 656.47,870.81 661.30,859.12 C660.22,859.23 659.54,859.74 658.45,861.50 C654.48,867.91 650.28,877.76 647.41,885.66 C644.53,893.98 632.31,932.68 627.09,949.31 C621.95,965.14 613.55,990.25 607.47,1005.05 C603.25,1014.96 601.53,1017.50 599.25,1020.13 C598.65,1005.78 599.57,977.25 600.42,961.12 C601.52,945.82 604.69,916.36 606.51,901.42 C608.91,884.65 614.76,844.81 615.75,839.80 C616.70,835.09 621.44,820.84 623.02,817.50 C623.95,817.91 624.40,818.57 624.80,820.47 C626.07,826.41 628.57,841.85 629.49,849.68 C631.03,866.09 633.78,897.95 634.99,913.40 C635.77,925.01 637.71,959.54 638.82,971.02 C639.30,975.18 640.22,982.90 640.67,986.46 C641.12,990.09 642.07,994.27 643.75,997.17 C644.98,999.17 646.88,1000.74 648.42,1000.84 C649.79,1000.88 652.31,1000.06 653.64,999.23 C656.41,997.40 660.06,993.50 662.58,989.95 C666.15,984.84 671.45,975.04 675.31,965.82 C681.23,951.37 692.50,924.71 700.55,908.40 C701.79,905.91 705.46,899.21 705.46,898.35 C701.24,903.85 692.72,915.11 687.76,922.51 C679.95,934.83 665.39,958.89 658.73,971.36 C651.94,984.66 640.16,1008.77 638.32,1012.19 C640.84,1005.82 646.64,991.43 649.79,984.06 C653.87,975.04 659.64,963.70 662.97,958.13 C664.47,955.64 674.14,940.53 678.10,935.66 C685.33,926.82 693.05,918.14 697.32,914.17 C701.16,910.64 711.65,903.47 716.80,901.01 C719.07,899.93 720.63,899.64 722.77,899.78 C722.91,901.99 721.91,905.91 719.80,910.59 C716.94,916.84 711.12,926.95 706.03,934.27 C701.90,940.03 692.22,952.62 687.41,958.47 C673.58,974.55 652.41,996.68 645.23,1002.15 C642.32,1004.37 638.46,1007.29 637.53,1008.00 C636.07,1006.07 635.56,1004.97 635.86,1003.78 C637.08,999.08 642.21,984.47 646.21,977.00 C649.32,971.23 657.31,958.45 661.50,952.96 C665.63,947.59 675.17,937.75 680.67,933.25 C686.76,928.29 695.93,922.05 705.91,916.00 C712.13,912.29 722.78,907.30 730.60,904.30 C739.57,900.97 748.74,898.02 760.93,894.63 C777.55,890.48 810.38,882.48 826.59,878.65 C834.50,876.90 862.22,872.74 865.04,872.62 C851.59,883.98 825.07,904.63 821.03,908.04 C809.35,918.24 784.64,940.17 772.23,951.87 C759.26,964.63 741.38,984.19 735.37,990.81" fill="#FFF" stroke="rgb(0, 0, 0)" stroke-width="30.50" stroke-opacity="1.00" stroke-linejoin="round"/>
<path d="M715.08,997.64 C717.92,992.62 725.76,981.33 730.09,975.14 C735.90,967.13 740.87,961.61 747.48,954.93 C752.40,950.03 760.24,942.77 768.14,936.67 C774.80,931.64 788.39,921.97 795.66,917.58 C809.06,909.72 834.97,895.83 847.99,889.29 C865.98,880.57 890.52,872.09 892.20,871.40 C879.52,878.07 854.10,891.85 841.35,898.96 C829.86,905.39 808.45,917.67 792.52,927.71 C778.91,936.46 748.90,955.37 737.63,961.82 C720.99,970.89 710.26,975.33 702.03,977.68 C698.16,978.72 694.05,979.24 690.58,979.23 C688.91,979.19 686.80,978.22 685.83,977.02 C685.10,976.03 684.62,973.56 684.84,972.28 C685.64,968.34 692.22,953.40 694.92,948.78 C698.23,943.18 705.30,934.90 711.31,929.00 C715.87,924.58 729.00,913.27 733.45,909.96 C739.27,905.64 751.65,897.95 758.86,894.20 C769.03,889.01 799.02,877.05 813.87,872.15 C827.71,867.81 852.50,861.51 871.78,857.54 C878.56,856.29 893.10,853.82 900.95,852.79 C924.34,850.27 938.16,849.31 945.27,850.19 C948.97,850.68 956.38,851.80 959.28,852.94 C961.16,853.70 966.42,857.34 967.73,859.46 C969.00,861.61 970.36,868.55 970.42,870.82 C970.47,873.59 969.66,882.76 969.31,885.01 C968.71,888.81 966.94,894.41 965.11,899.03 C963.48,903.04 961.22,906.77 958.43,910.09 C952.82,916.68 926.66,940.20 915.21,951.00 C910.92,954.89 897.72,965.89 893.58,968.48 C887.37,972.32 874.04,976.94 867.33,978.03 C865.68,978.30 862.95,978.74 861.87,978.92" fill="#FFF" stroke="rgb(0, 0, 0)" stroke-width="30.50" stroke-opacity="1.00" stroke-linejoin="round"/>
<path d="M788.69,971.82 C786.00,970.64 778.51,967.29 777.46,966.49 C776.01,965.34 774.96,963.79 774.76,962.42 C774.44,959.61 774.47,959.09 774.98,956.95 C775.20,956.14 775.99,953.54 776.62,952.89 C778.04,951.50 783.19,951.87 785.94,952.78 C791.84,954.80 798.74,958.82 807.63,964.81 C815.56,970.21 826.96,976.38 835.60,979.75 C840.17,981.52 840.79,981.75 842.00,982.13" fill="#FFF" stroke="rgb(0, 0, 0)" stroke-width="30.50" stroke-opacity="1.00" stroke-linejoin="round"/>
<path d="M939.41,959.01 C943.28,953.47 951.35,940.82 953.40,937.20 C957.09,930.62 961.24,919.15 962.43,911.78 C963.46,905.28 963.43,895.67 962.73,893.37 C962.30,892.09 960.48,889.35 959.44,888.45 C957.21,886.61 950.32,884.48 946.77,884.15 C941.60,883.73 925.26,885.75 920.10,887.51 C914.26,889.53 904.45,893.94 896.60,898.76 C888.25,903.97 878.21,911.40 870.88,917.60 C858.74,928.52 835.37,949.75 823.11,960.51 C817.06,965.59 809.32,972.08 806.81,974.06" fill="#FFF" stroke="rgb(0, 0, 0)" stroke-width="30.50" stroke-opacity="1.00" stroke-linejoin="round"/>
<path d="M777.80,985.45 C778.55,981.79 786.65,965.13 790.18,960.04 C793.20,955.71 806.23,940.80 810.87,936.32 C815.47,931.91 829.56,920.68 833.40,917.96 C839.53,913.72 852.00,905.72 858.34,902.14 C864.69,898.71 875.27,893.39 885.14,889.08 C894.77,885.10 904.27,881.61 912.09,879.34 C922.88,876.33 929.62,874.78 932.65,874.31 C926.64,880.25 917.50,887.99 912.51,891.73 C901.76,899.68 872.18,917.34 858.07,925.63 C844.69,933.28 821.24,945.96 805.49,953.45 C785.60,962.50 757.67,973.34 748.23,976.13 C742.67,977.76 724.32,981.63 723.14,981.16 C722.19,980.74 719.46,978.53 719.01,977.72 C717.99,975.71 724.13,959.81 727.87,953.35 C731.62,946.92 739.86,936.58 745.09,931.43 C748.74,927.85 759.79,918.62 765.86,914.29 C771.24,910.45 781.69,904.16 790.99,899.42 C799.00,895.43 807.22,892.19 817.15,888.88 C826.44,885.93 839.89,882.20 847.42,880.83 C854.48,879.55 868.27,877.84 876.83,877.26 C885.13,876.83 901.03,877.47 903.41,877.81 C904.64,878.00 907.96,878.97 909.65,879.65 C912.04,880.66 914.10,882.42 914.28,883.89 C914.48,886.44 910.54,895.48 909.14,898.14 C907.09,901.98 897.38,913.70 892.51,918.03 C886.82,923.02 876.92,930.77 870.36,935.30 C864.48,939.19 852.94,946.24 845.52,950.30 C830.43,958.16 808.97,967.64 791.67,974.49 C785.01,976.97 769.08,982.63 764.46,984.01 C753.73,987.07 740.63,990.18 733.00,991.25 C724.57,992.42 710.13,993.10 702.65,992.41 C700.02,992.16 694.14,991.14 690.23,990.06 C684.47,988.43 681.45,987.18 678.96,984.76 C677.69,983.49 675.22,980.78 674.75,979.99 C674.02,978.73 673.68,976.98 673.77,975.30 C674.03,971.09 674.84,966.96 676.39,962.88 C678.26,958.03 684.78,947.15 688.98,942.01 C693.55,936.45 704.29,927.11 710.61,923.08 C716.51,919.35 727.05,914.12 732.85,911.59 C738.59,909.13 752.23,905.17 759.05,903.24 C769.14,900.71 779.76,898.65 788.64,897.29 C798.55,896.03 810.57,895.13 817.91,894.80 C827.83,894.56 840.38,894.88 848.04,895.28 C855.20,895.77 870.46,897.35 878.91,898.71 C927.25,907.83 935.97,912.03 936.83,912.54 C935.88,914.95 935.15,916.14 933.77,917.21 C928.63,921.26 920.11,926.76 910.55,932.12 C903.46,935.98 889.88,943.27 883.39,946.70 C874.12,951.43 844.55,963.33 841.20,964.41 C838.64,965.25 833.53,966.84 830.04,966.53 C829.61,966.49 828.75,966.39 827.45,966.23 C827.22,963.37 827.25,961.89 827.70,960.35 C829.39,954.42 835.12,941.01 838.78,935.68 C840.28,933.51 854.64,914.41 857.35,911.19 C860.71,907.23 870.13,897.98 875.36,894.35 C883.80,888.64 894.35,882.45 901.91,879.44 C908.98,876.66 923.05,872.66 928.71,871.82 C931.53,871.41 938.37,870.90 941.12,871.06 C944.35,871.27 949.21,872.60 950.12,874.16 C951.12,876.00 950.20,882.06 948.74,885.96 C946.47,891.86 938.90,903.56 933.89,909.14 C929.36,914.16 918.92,923.00 913.30,927.11 C905.62,932.57 898.76,936.94 890.85,941.45 C886.10,944.08 869.42,951.85 867.21,952.25 C865.83,952.49 863.61,952.50 862.34,952.36 C860.78,949.45 859.99,944.63 860.62,940.22 C861.57,934.20 868.62,919.53 872.19,914.02 C876.18,907.91 884.31,898.50 890.08,893.06 C895.81,887.68 903.27,882.29 905.70,880.56 C891.45,890.76 865.63,907.47 856.06,912.22 C843.34,918.30 817.23,930.17 803.39,936.15 C789.23,942.02 760.51,952.91 746.99,957.68 C734.00,962.02 706.12,970.16 691.80,973.32 C684.81,974.75 668.18,977.80 666.33,977.82 C665.27,977.83 659.36,977.51 658.28,977.45 C657.49,975.47 656.48,972.53 656.38,971.36 C656.22,969.51 659.56,962.97 660.40,961.57 C662.14,958.73 674.26,947.00 680.28,942.66 C686.03,938.55 698.78,931.52 705.46,928.76 C710.45,926.74 727.22,920.54 732.30,919.04 C738.69,917.18 778.28,908.97 795.31,905.67 C802.79,904.35 818.59,901.62 823.74,901.95 C825.51,902.08 831.27,902.92 832.05,902.85 C832.58,902.80 833.82,902.59 835.76,902.22" fill="#FFF" stroke="rgb(0, 0, 0)" stroke-width="30.50" stroke-opacity="1.00" stroke-linejoin="round"/>
</g>
</svg>
